<mxfile host="app.diagrams.net" modified="2023-01-17T16:05:53.366Z" agent="5.0 (Macintosh; Intel Mac OS X 10_15_7) AppleWebKit/537.36 (KHTML, like Gecko) Chrome/109.0.0.0 Safari/537.36" etag="iJxp8SDwMqgBeGAIbP8l" version="20.8.5" type="github" pages="2">
  <diagram id="6qL_FKRn-VJSjgMeZuZw" name="Custodia">
    <mxGraphModel dx="880" dy="1587" grid="1" gridSize="10" guides="1" tooltips="1" connect="1" arrows="1" fold="1" page="1" pageScale="1" pageWidth="850" pageHeight="1100" math="0" shadow="0">
      <root>
        <mxCell id="0" />
        <mxCell id="1" parent="0" />
        <mxCell id="zCHwmClxqehuHZnsHQMJ-31" value="Santiago Charrez" style="rounded=1;whiteSpace=wrap;html=1;sketch=1;hachureGap=4;jiggle=2;curveFitting=1;fontFamily=Architects Daughter;fontSource=https%3A%2F%2Ffonts.googleapis.com%2Fcss%3Ffamily%3DArchitects%2BDaughter;fontSize=20;labelBackgroundColor=none;fillColor=default;strokeColor=default;align=left;verticalAlign=top;fontColor=#000000;spacingLeft=23;" parent="1" vertex="1">
          <mxGeometry x="20" y="330" width="550" height="120" as="geometry" />
        </mxCell>
        <mxCell id="zCHwmClxqehuHZnsHQMJ-27" value="Santiago medranda" style="rounded=1;whiteSpace=wrap;html=1;sketch=1;hachureGap=4;jiggle=2;curveFitting=1;fontFamily=Architects Daughter;fontSource=https%3A%2F%2Ffonts.googleapis.com%2Fcss%3Ffamily%3DArchitects%2BDaughter;fontSize=20;labelBackgroundColor=none;fillColor=default;strokeColor=default;align=left;verticalAlign=top;fontColor=#000000;spacingLeft=23;" parent="1" vertex="1">
          <mxGeometry x="21" y="200" width="549" height="110" as="geometry" />
        </mxCell>
        <mxCell id="zCHwmClxqehuHZnsHQMJ-26" value="Laura Carrazco" style="rounded=1;whiteSpace=wrap;html=1;sketch=1;hachureGap=4;jiggle=2;curveFitting=1;fontFamily=Architects Daughter;fontSource=https%3A%2F%2Ffonts.googleapis.com%2Fcss%3Ffamily%3DArchitects%2BDaughter;fontSize=20;labelBackgroundColor=none;fillColor=default;strokeColor=default;align=left;verticalAlign=top;fontColor=#000000;spacingLeft=23;" parent="1" vertex="1">
          <mxGeometry x="20" y="60" width="550" height="120" as="geometry" />
        </mxCell>
        <mxCell id="zCHwmClxqehuHZnsHQMJ-32" value="Mauricio Auqui" style="rounded=1;whiteSpace=wrap;html=1;sketch=1;hachureGap=4;jiggle=2;curveFitting=1;fontFamily=Architects Daughter;fontSource=https%3A%2F%2Ffonts.googleapis.com%2Fcss%3Ffamily%3DArchitects%2BDaughter;fontSize=20;fontColor=#000000;labelBackgroundColor=none;verticalAlign=top;align=left;spacingLeft=23;" parent="1" vertex="1">
          <mxGeometry x="20" y="-230" width="550" height="270" as="geometry" />
        </mxCell>
        <mxCell id="zCHwmClxqehuHZnsHQMJ-23" value="Fernando Roldan" style="rounded=1;whiteSpace=wrap;html=1;sketch=1;hachureGap=4;jiggle=2;curveFitting=1;fontFamily=Architects Daughter;fontSource=https%3A%2F%2Ffonts.googleapis.com%2Fcss%3Ffamily%3DArchitects%2BDaughter;fontSize=20;labelBackgroundColor=none;verticalAlign=top;align=left;fontColor=#000000;spacingLeft=23;" parent="1" vertex="1">
          <mxGeometry x="20" y="-531" width="550" height="270" as="geometry" />
        </mxCell>
        <mxCell id="zCHwmClxqehuHZnsHQMJ-18" value="Carlos Arratta" style="rounded=1;whiteSpace=wrap;html=1;sketch=1;hachureGap=4;jiggle=2;curveFitting=1;fontFamily=Architects Daughter;fontSource=https%3A%2F%2Ffonts.googleapis.com%2Fcss%3Ffamily%3DArchitects%2BDaughter;fontSize=20;fontColor=#000000;labelBackgroundColor=none;verticalAlign=top;align=left;spacingLeft=23;" parent="1" vertex="1">
          <mxGeometry x="20" y="-990" width="550" height="440" as="geometry" />
        </mxCell>
        <mxCell id="zCHwmClxqehuHZnsHQMJ-1" value="Analisis morfologico de firmas" style="rounded=1;whiteSpace=wrap;html=1;sketch=1;hachureGap=4;jiggle=2;curveFitting=1;fontFamily=Architects Daughter;fontSource=https%3A%2F%2Ffonts.googleapis.com%2Fcss%3Ffamily%3DArchitects%2BDaughter;fontSize=20;labelBackgroundColor=none;fillColor=#d5e8d4;strokeColor=#82b366;" parent="1" vertex="1">
          <mxGeometry x="80" y="-940" width="410" height="60" as="geometry" />
        </mxCell>
        <mxCell id="zCHwmClxqehuHZnsHQMJ-2" value="Procesador inteligente de documentos" style="text;whiteSpace=wrap;html=1;fontSize=20;fontFamily=Architects Daughter;align=center;verticalAlign=middle;fillColor=default;strokeColor=default;rounded=1;sketch=1;hachureGap=4;jiggle=2;curveFitting=1;fontSource=https%3A%2F%2Ffonts.googleapis.com%2Fcss%3Ffamily%3DArchitects%2BDaughter;fontColor=#000000;labelBackgroundColor=none;" parent="1" vertex="1">
          <mxGeometry x="80" y="-860" width="410" height="60" as="geometry" />
        </mxCell>
        <mxCell id="zCHwmClxqehuHZnsHQMJ-3" value="&lt;span style=&quot;margin: 0px; padding: 0.00978849px 0px 0px; user-select: text; -webkit-user-drag: none; -webkit-tap-highlight-color: transparent; touch-action: pan-x pan-y; font-variant-numeric: normal; font-variant-east-asian: normal; letter-spacing: 0px; text-align: left; font-size: 20px; font-kerning: none; line-height: 10px; vertical-align: -0.00978849px;&quot; lang=&quot;EN-US&quot; class=&quot;TextRun SCXP16540684 BCX0&quot; data-contrast=&quot;none&quot; data-usefontface=&quot;false&quot;&gt;&lt;span style=&quot;margin: 0px; padding: 0px; user-select: text; -webkit-user-drag: none; -webkit-tap-highlight-color: transparent; touch-action: pan-x pan-y; background-repeat: repeat-x; background-position: left bottom; background-image: url(&amp;quot;data:image/gif;base64,R0lGODlhBQAEAJECAP////8AAAAAAAAAACH5BAEAAAIALAAAAAAFAAQAAAIIlGAXCCHrTCgAOw==&amp;quot;); border-bottom: 1px solid transparent; vertical-align: 0.00978849px; line-height: 0px; position: relative; font-size: 20px;&quot; class=&quot;SpellingError SCXP16540684 BCX0&quot;&gt;Herramienta&lt;/span&gt;&lt;/span&gt;&lt;span style=&quot;margin: 0px; padding: 0.00978849px 0px 0px; user-select: text; -webkit-user-drag: none; -webkit-tap-highlight-color: transparent; touch-action: pan-x pan-y; font-variant-numeric: normal; font-variant-east-asian: normal; letter-spacing: 0px; text-align: left; font-size: 20px; font-kerning: none; line-height: 10px; vertical-align: -0.00978849px;&quot; lang=&quot;EN-US&quot; class=&quot;TextRun SCXP16540684 BCX0&quot; data-contrast=&quot;none&quot; data-usefontface=&quot;false&quot;&gt;&lt;span style=&quot;margin: 0px; padding: 0px; user-select: text; -webkit-user-drag: none; -webkit-tap-highlight-color: transparent; touch-action: pan-x pan-y; vertical-align: 0.00978849px; line-height: 0px; position: relative; font-size: 20px;&quot; class=&quot;NormalTextRun SCXP16540684 BCX0&quot;&gt;&amp;nbsp;&lt;/span&gt;&lt;/span&gt;&lt;span style=&quot;margin: 0px; padding: 0.00978849px 0px 0px; user-select: text; -webkit-user-drag: none; -webkit-tap-highlight-color: transparent; touch-action: pan-x pan-y; font-variant-numeric: normal; font-variant-east-asian: normal; letter-spacing: 0px; text-align: left; font-size: 20px; font-kerning: none; line-height: 10px; vertical-align: -0.00978849px;&quot; lang=&quot;EN-US&quot; class=&quot;TextRun SCXP16540684 BCX0&quot; data-contrast=&quot;none&quot; data-usefontface=&quot;false&quot;&gt;&lt;span style=&quot;margin: 0px; padding: 0px; user-select: text; -webkit-user-drag: none; -webkit-tap-highlight-color: transparent; touch-action: pan-x pan-y; vertical-align: 0.00978849px; line-height: 0px; position: relative; font-size: 20px;&quot; class=&quot;NormalTextRun SCXP16540684 BCX0&quot;&gt;Ciclo&lt;/span&gt;&lt;/span&gt;&lt;span style=&quot;margin: 0px; padding: 0.00978849px 0px 0px; user-select: text; -webkit-user-drag: none; -webkit-tap-highlight-color: transparent; touch-action: pan-x pan-y; font-variant-numeric: normal; font-variant-east-asian: normal; letter-spacing: 0px; text-align: left; font-size: 20px; font-kerning: none; line-height: 10px; vertical-align: -0.00978849px;&quot; lang=&quot;EN-US&quot; class=&quot;TextRun SCXP16540684 BCX0&quot; data-contrast=&quot;none&quot; data-usefontface=&quot;false&quot;&gt;&lt;span style=&quot;margin: 0px; padding: 0px; user-select: text; -webkit-user-drag: none; -webkit-tap-highlight-color: transparent; touch-action: pan-x pan-y; vertical-align: 0.00978849px; line-height: 0px; position: relative; font-size: 20px;&quot; class=&quot;NormalTextRun SCXP16540684 BCX0&quot;&gt;&amp;nbsp;de Vida de&amp;nbsp;&lt;/span&gt;&lt;span style=&quot;margin: 0px; padding: 0px; user-select: text; -webkit-user-drag: none; -webkit-tap-highlight-color: transparent; touch-action: pan-x pan-y; background-repeat: repeat-x; background-position: left bottom; background-image: url(&amp;quot;data:image/gif;base64,R0lGODlhBQAEAJECAP////8AAAAAAAAAACH5BAEAAAIALAAAAAAFAAQAAAIIlGAXCCHrTCgAOw==&amp;quot;); border-bottom: 1px solid transparent; vertical-align: 0.00978849px; line-height: 0px; position: relative; font-size: 20px;&quot; class=&quot;SpellingError SCXP16540684 BCX0&quot;&gt;Contratos&lt;/span&gt;&lt;span style=&quot;margin: 0px; padding: 0px; user-select: text; -webkit-user-drag: none; -webkit-tap-highlight-color: transparent; touch-action: pan-x pan-y; vertical-align: 0.00978849px; line-height: 0px; position: relative; font-size: 20px;&quot; class=&quot;NormalTextRun SCXP16540684 BCX0&quot;&gt;&amp;nbsp;CLM&lt;/span&gt;&lt;/span&gt;&lt;span style=&quot;margin: 0px; padding: 0px; user-select: text; -webkit-user-drag: none; -webkit-tap-highlight-color: transparent; touch-action: pan-x pan-y; text-align: left; font-size: 20px; line-height: 0px;&quot; class=&quot;EOP SCXP16540684 BCX0&quot;&gt;â€‹&lt;/span&gt;" style="rounded=1;whiteSpace=wrap;html=1;sketch=1;hachureGap=4;jiggle=2;curveFitting=1;fontFamily=Architects Daughter;fontSource=https%3A%2F%2Ffonts.googleapis.com%2Fcss%3Ffamily%3DArchitects%2BDaughter;fontSize=20;labelBackgroundColor=none;fillColor=#d5e8d4;strokeColor=#82b366;" parent="1" vertex="1">
          <mxGeometry x="80" y="-780" width="410" height="60" as="geometry" />
        </mxCell>
        <mxCell id="zCHwmClxqehuHZnsHQMJ-4" value="&lt;span style=&quot;border-color: var(--border-color); font-variant-numeric: normal; font-variant-east-asian: normal; letter-spacing: 0px; margin: 0px; padding: 0.00978849px 0px 0px; user-select: text; -webkit-user-drag: none; -webkit-tap-highlight-color: transparent; touch-action: pan-x pan-y; text-align: left; font-size: 20px; font-kerning: none; line-height: 10px; vertical-align: -0.00978849px;&quot; lang=&quot;ES-ES&quot; class=&quot;TextRun SCXP204502447 BCX0&quot; data-contrast=&quot;none&quot; data-usefontface=&quot;false&quot;&gt;&lt;span style=&quot;border-color: var(--border-color); margin: 0px; padding: 0px; user-select: text; -webkit-user-drag: none; -webkit-tap-highlight-color: transparent; touch-action: pan-x pan-y; vertical-align: 0.00978849px; line-height: 0px; position: relative; font-size: 20px;&quot; class=&quot;NormalTextRun SCXP204502447 BCX0&quot;&gt;AutomatizaciÃ³n con Inteligencia Artificial y PLN.(procesamiento de lenguaje natural)&lt;/span&gt;&lt;/span&gt;&lt;span style=&quot;border-color: var(--border-color); margin: 0px; padding: 0px; user-select: text; -webkit-user-drag: none; -webkit-tap-highlight-color: transparent; touch-action: pan-x pan-y; text-align: left; font-size: 20px; line-height: 0px;&quot; class=&quot;EOP SCXP204502447 BCX0&quot;&gt;â€‹&lt;/span&gt;" style="rounded=1;whiteSpace=wrap;html=1;sketch=1;hachureGap=4;jiggle=2;curveFitting=1;fontFamily=Architects Daughter;fontSource=https%3A%2F%2Ffonts.googleapis.com%2Fcss%3Ffamily%3DArchitects%2BDaughter;fontSize=20;labelBackgroundColor=none;fillColor=#d5e8d4;strokeColor=#82b366;" parent="1" vertex="1">
          <mxGeometry x="80" y="-491" width="410" height="60" as="geometry" />
        </mxCell>
        <mxCell id="zCHwmClxqehuHZnsHQMJ-5" value="&lt;span style=&quot;border-color: var(--border-color); font-variant-numeric: normal; font-variant-east-asian: normal; letter-spacing: 0px; margin: 0px; padding: 0.00978849px 0px 0px; user-select: text; -webkit-user-drag: none; -webkit-tap-highlight-color: transparent; touch-action: pan-x pan-y; text-align: left; font-size: 20px; font-kerning: none; line-height: 10px; vertical-align: -0.00978849px;&quot; lang=&quot;ES-ES&quot; class=&quot;TextRun SCXP37964244 BCX0&quot; data-contrast=&quot;none&quot; data-usefontface=&quot;false&quot;&gt;&lt;span style=&quot;border-color: var(--border-color); margin: 0px; padding: 0px; user-select: text; -webkit-user-drag: none; -webkit-tap-highlight-color: transparent; touch-action: pan-x pan-y; vertical-align: 0.00978849px; line-height: 0px; position: relative; font-size: 20px;&quot; class=&quot;NormalTextRun SCXP37964244 BCX0&quot;&gt;AutomatizaciÃ³n bajo&lt;span style=&quot;border-color: var(--border-color); font-size: 20px;&quot;&gt;&amp;nbsp;&lt;/span&gt;&lt;/span&gt;&lt;/span&gt;&lt;span style=&quot;border-color: var(--border-color); font-variant-numeric: normal; font-variant-east-asian: normal; letter-spacing: 0px; margin: 0px; padding: 0.00978849px 0px 0px; user-select: text; -webkit-user-drag: none; -webkit-tap-highlight-color: transparent; touch-action: pan-x pan-y; text-align: left; font-size: 20px; font-kerning: none; line-height: 10px; vertical-align: -0.00978849px;&quot; lang=&quot;ES-ES&quot; class=&quot;TextRun SCXP37964244 BCX0&quot; data-contrast=&quot;none&quot; data-usefontface=&quot;false&quot;&gt;&lt;span style=&quot;border-bottom: 1px solid transparent; margin: 0px; padding: 0px; user-select: text; -webkit-user-drag: none; -webkit-tap-highlight-color: transparent; touch-action: pan-x pan-y; background-repeat: repeat-x; background-position: left bottom; background-image: url(&amp;quot;data:image/gif;base64,R0lGODlhBQAEAJECAP////8AAAAAAAAAACH5BAEAAAIALAAAAAAFAAQAAAIIlGAXCCHrTCgAOw==&amp;quot;); vertical-align: 0.00978849px; line-height: 0px; position: relative; font-size: 20px;&quot; class=&quot;SpellingError SCXP37964244 BCX0&quot;&gt;low&lt;/span&gt;&lt;/span&gt;&lt;span style=&quot;border-color: var(--border-color); font-variant-numeric: normal; font-variant-east-asian: normal; letter-spacing: 0px; margin: 0px; padding: 0.00978849px 0px 0px; user-select: text; -webkit-user-drag: none; -webkit-tap-highlight-color: transparent; touch-action: pan-x pan-y; text-align: left; font-size: 20px; font-kerning: none; line-height: 10px; vertical-align: -0.00978849px;&quot; lang=&quot;ES-ES&quot; class=&quot;TextRun SCXP37964244 BCX0&quot; data-contrast=&quot;none&quot; data-usefontface=&quot;false&quot;&gt;&lt;span style=&quot;border-color: var(--border-color); margin: 0px; padding: 0px; user-select: text; -webkit-user-drag: none; -webkit-tap-highlight-color: transparent; touch-action: pan-x pan-y; vertical-align: 0.00978849px; line-height: 0px; position: relative; font-size: 20px;&quot; class=&quot;NormalTextRun SCXP37964244 BCX0&quot;&gt;&lt;span style=&quot;border-color: var(--border-color); font-size: 20px;&quot;&gt;&amp;nbsp;&lt;/span&gt;&lt;/span&gt;&lt;/span&gt;&lt;span style=&quot;border-color: var(--border-color); font-variant-numeric: normal; font-variant-east-asian: normal; letter-spacing: 0px; margin: 0px; padding: 0.00978849px 0px 0px; user-select: text; -webkit-user-drag: none; -webkit-tap-highlight-color: transparent; touch-action: pan-x pan-y; text-align: left; font-size: 20px; font-kerning: none; line-height: 10px; vertical-align: -0.00978849px;&quot; lang=&quot;ES-ES&quot; class=&quot;TextRun SCXP37964244 BCX0&quot; data-contrast=&quot;none&quot; data-usefontface=&quot;false&quot;&gt;&lt;span style=&quot;border-bottom: 1px solid transparent; margin: 0px; padding: 0px; user-select: text; -webkit-user-drag: none; -webkit-tap-highlight-color: transparent; touch-action: pan-x pan-y; background-repeat: repeat-x; background-position: left bottom; background-image: url(&amp;quot;data:image/gif;base64,R0lGODlhBQAEAJECAP////8AAAAAAAAAACH5BAEAAAIALAAAAAAFAAQAAAIIlGAXCCHrTCgAOw==&amp;quot;); vertical-align: 0.00978849px; line-height: 0px; position: relative; font-size: 20px;&quot; class=&quot;SpellingError SCXP37964244 BCX0&quot;&gt;code&lt;/span&gt;&lt;/span&gt;&lt;span style=&quot;border-color: var(--border-color); margin: 0px; padding: 0px; user-select: text; -webkit-user-drag: none; -webkit-tap-highlight-color: transparent; touch-action: pan-x pan-y; text-align: left; font-size: 20px; line-height: 0px;&quot; class=&quot;EOP SCXP37964244 BCX0&quot;&gt;â€‹&lt;/span&gt;" style="rounded=1;whiteSpace=wrap;html=1;sketch=1;hachureGap=4;jiggle=2;curveFitting=1;fontFamily=Architects Daughter;fontSource=https%3A%2F%2Ffonts.googleapis.com%2Fcss%3Ffamily%3DArchitects%2BDaughter;fontSize=20;labelBackgroundColor=none;fillColor=#d5e8d4;strokeColor=#82b366;" parent="1" vertex="1">
          <mxGeometry x="80" y="-411" width="410" height="60" as="geometry" />
        </mxCell>
        <mxCell id="zCHwmClxqehuHZnsHQMJ-6" value="&lt;span style=&quot;margin: 0px; padding: 0.00978849px 0px 0px; user-select: text; -webkit-user-drag: none; -webkit-tap-highlight-color: transparent; touch-action: pan-x pan-y; font-variant-numeric: normal; font-variant-east-asian: normal; letter-spacing: 0px; text-align: left; font-size: 20px; font-kerning: none; line-height: 10px; vertical-align: -0.00978849px;&quot; lang=&quot;ES-MX&quot; class=&quot;TextRun SCXP263970467 BCX0&quot; data-contrast=&quot;none&quot; data-usefontface=&quot;false&quot;&gt;&lt;span style=&quot;margin: 0px; padding: 0px; user-select: text; -webkit-user-drag: none; -webkit-tap-highlight-color: transparent; touch-action: pan-x pan-y; background-repeat: repeat-x; background-position: left bottom; background-image: url(&amp;quot;data:image/gif;base64,R0lGODlhBQAEAJECAP////8AAAAAAAAAACH5BAEAAAIALAAAAAAFAAQAAAIIlGAXCCHrTCgAOw==&amp;quot;); border-bottom: 1px solid transparent; vertical-align: 0.00978849px; line-height: 0px; position: relative; font-size: 20px;&quot; class=&quot;SpellingError SCXP263970467 BCX0&quot;&gt;Process&lt;/span&gt;&lt;/span&gt;&lt;span style=&quot;margin: 0px; padding: 0.00978849px 0px 0px; user-select: text; -webkit-user-drag: none; -webkit-tap-highlight-color: transparent; touch-action: pan-x pan-y; font-variant-numeric: normal; font-variant-east-asian: normal; letter-spacing: 0px; text-align: left; font-size: 20px; font-kerning: none; line-height: 10px; vertical-align: -0.00978849px;&quot; lang=&quot;ES-MX&quot; class=&quot;TextRun SCXP263970467 BCX0&quot; data-contrast=&quot;none&quot; data-usefontface=&quot;false&quot;&gt;&lt;span style=&quot;margin: 0px; padding: 0px; user-select: text; -webkit-user-drag: none; -webkit-tap-highlight-color: transparent; touch-action: pan-x pan-y; vertical-align: 0.00978849px; line-height: 0px; position: relative; font-size: 20px;&quot; class=&quot;NormalTextRun SCXP263970467 BCX0&quot;&gt;&amp;nbsp;&lt;/span&gt;&lt;/span&gt;&lt;span style=&quot;margin: 0px; padding: 0.00978849px 0px 0px; user-select: text; -webkit-user-drag: none; -webkit-tap-highlight-color: transparent; touch-action: pan-x pan-y; font-variant-numeric: normal; font-variant-east-asian: normal; letter-spacing: 0px; text-align: left; font-size: 20px; font-kerning: none; line-height: 10px; vertical-align: -0.00978849px;&quot; lang=&quot;ES-MX&quot; class=&quot;TextRun SCXP263970467 BCX0&quot; data-contrast=&quot;none&quot; data-usefontface=&quot;false&quot;&gt;&lt;span style=&quot;margin: 0px; padding: 0px; user-select: text; -webkit-user-drag: none; -webkit-tap-highlight-color: transparent; touch-action: pan-x pan-y; background-repeat: repeat-x; background-position: left bottom; background-image: url(&amp;quot;data:image/gif;base64,R0lGODlhBQAEAJECAP////8AAAAAAAAAACH5BAEAAAIALAAAAAAFAAQAAAIIlGAXCCHrTCgAOw==&amp;quot;); border-bottom: 1px solid transparent; vertical-align: 0.00978849px; line-height: 0px; position: relative; font-size: 20px;&quot; class=&quot;SpellingError SCXP263970467 BCX0&quot;&gt;Mining&lt;/span&gt;&lt;/span&gt;&lt;span style=&quot;margin: 0px; padding: 0.00978849px 0px 0px; user-select: text; -webkit-user-drag: none; -webkit-tap-highlight-color: transparent; touch-action: pan-x pan-y; font-variant-numeric: normal; font-variant-east-asian: normal; letter-spacing: 0px; text-align: left; font-size: 20px; font-kerning: none; line-height: 10px; vertical-align: -0.00978849px;&quot; lang=&quot;ES-MX&quot; class=&quot;TextRun SCXP263970467 BCX0&quot; data-contrast=&quot;none&quot; data-usefontface=&quot;false&quot;&gt;&lt;span style=&quot;margin: 0px; padding: 0px; user-select: text; -webkit-user-drag: none; -webkit-tap-highlight-color: transparent; touch-action: pan-x pan-y; vertical-align: 0.00978849px; line-height: 0px; position: relative; font-size: 20px;&quot; class=&quot;NormalTextRun SCXP263970467 BCX0&quot;&gt;&amp;nbsp;/&amp;nbsp;&lt;/span&gt;&lt;/span&gt;&lt;span style=&quot;margin: 0px; padding: 0.00978849px 0px 0px; user-select: text; -webkit-user-drag: none; -webkit-tap-highlight-color: transparent; touch-action: pan-x pan-y; font-variant-numeric: normal; font-variant-east-asian: normal; letter-spacing: 0px; text-align: left; font-size: 20px; font-kerning: none; line-height: 10px; vertical-align: -0.00978849px;&quot; lang=&quot;ES-MX&quot; class=&quot;TextRun SCXP263970467 BCX0&quot; data-contrast=&quot;none&quot; data-usefontface=&quot;false&quot;&gt;&lt;span style=&quot;margin: 0px; padding: 0px; user-select: text; -webkit-user-drag: none; -webkit-tap-highlight-color: transparent; touch-action: pan-x pan-y; background-repeat: repeat-x; background-position: left bottom; background-image: url(&amp;quot;data:image/gif;base64,R0lGODlhBQAEAJECAP////8AAAAAAAAAACH5BAEAAAIALAAAAAAFAAQAAAIIlGAXCCHrTCgAOw==&amp;quot;); border-bottom: 1px solid transparent; vertical-align: 0.00978849px; line-height: 0px; position: relative; font-size: 20px;&quot; class=&quot;SpellingError SCXP263970467 BCX0&quot;&gt;Task&lt;/span&gt;&lt;/span&gt;&lt;span style=&quot;margin: 0px; padding: 0.00978849px 0px 0px; user-select: text; -webkit-user-drag: none; -webkit-tap-highlight-color: transparent; touch-action: pan-x pan-y; font-variant-numeric: normal; font-variant-east-asian: normal; letter-spacing: 0px; text-align: left; font-size: 20px; font-kerning: none; line-height: 10px; vertical-align: -0.00978849px;&quot; lang=&quot;ES-MX&quot; class=&quot;TextRun SCXP263970467 BCX0&quot; data-contrast=&quot;none&quot; data-usefontface=&quot;false&quot;&gt;&lt;span style=&quot;margin: 0px; padding: 0px; user-select: text; -webkit-user-drag: none; -webkit-tap-highlight-color: transparent; touch-action: pan-x pan-y; vertical-align: 0.00978849px; line-height: 0px; position: relative; font-size: 20px;&quot; class=&quot;NormalTextRun SCXP263970467 BCX0&quot;&gt;&amp;nbsp;&lt;/span&gt;&lt;/span&gt;&lt;span style=&quot;margin: 0px; padding: 0.00978849px 0px 0px; user-select: text; -webkit-user-drag: none; -webkit-tap-highlight-color: transparent; touch-action: pan-x pan-y; font-variant-numeric: normal; font-variant-east-asian: normal; letter-spacing: 0px; text-align: left; font-size: 20px; font-kerning: none; line-height: 10px; vertical-align: -0.00978849px;&quot; lang=&quot;ES-MX&quot; class=&quot;TextRun SCXP263970467 BCX0&quot; data-contrast=&quot;none&quot; data-usefontface=&quot;false&quot;&gt;&lt;span style=&quot;margin: 0px; padding: 0px; user-select: text; -webkit-user-drag: none; -webkit-tap-highlight-color: transparent; touch-action: pan-x pan-y; background-repeat: repeat-x; background-position: left bottom; background-image: url(&amp;quot;data:image/gif;base64,R0lGODlhBQAEAJECAP////8AAAAAAAAAACH5BAEAAAIALAAAAAAFAAQAAAIIlGAXCCHrTCgAOw==&amp;quot;); border-bottom: 1px solid transparent; vertical-align: 0.00978849px; line-height: 0px; position: relative; font-size: 20px;&quot; class=&quot;SpellingError SCXP263970467 BCX0&quot;&gt;Mining&lt;/span&gt;&lt;/span&gt;&lt;span style=&quot;margin: 0px; padding: 0px; user-select: text; -webkit-user-drag: none; -webkit-tap-highlight-color: transparent; touch-action: pan-x pan-y; text-align: left; font-size: 20px; line-height: 0px;&quot; class=&quot;EOP SCXP263970467 BCX0&quot;&gt;â€‹&lt;/span&gt;" style="rounded=1;whiteSpace=wrap;html=1;sketch=1;hachureGap=4;jiggle=2;curveFitting=1;fontFamily=Architects Daughter;fontSource=https%3A%2F%2Ffonts.googleapis.com%2Fcss%3Ffamily%3DArchitects%2BDaughter;fontSize=20;labelBackgroundColor=none;fillColor=#f8cecc;strokeColor=#b85450;" parent="1" vertex="1">
          <mxGeometry x="80" y="-331" width="410" height="60" as="geometry" />
        </mxCell>
        <mxCell id="zCHwmClxqehuHZnsHQMJ-7" value="&lt;span style=&quot;margin: 0px; padding: 0.00978849px 0px 0px; user-select: text; -webkit-user-drag: none; -webkit-tap-highlight-color: transparent; touch-action: pan-x pan-y; font-variant-numeric: normal; font-variant-east-asian: normal; letter-spacing: 0px; text-align: left; font-size: 20px; font-kerning: none; line-height: 10px; vertical-align: -0.00978849px;&quot; lang=&quot;EN-US&quot; class=&quot;TextRun SCXP249253817 BCX0&quot; data-contrast=&quot;none&quot; data-usefontface=&quot;false&quot;&gt;&lt;span style=&quot;margin: 0px; padding: 0px; user-select: text; -webkit-user-drag: none; -webkit-tap-highlight-color: transparent; touch-action: pan-x pan-y; background-repeat: repeat-x; background-position: left bottom; background-image: url(&amp;quot;data:image/gif;base64,R0lGODlhBQAEAJECAP////8AAAAAAAAAACH5BAEAAAIALAAAAAAFAAQAAAIIlGAXCCHrTCgAOw==&amp;quot;); border-bottom: 1px solid transparent; vertical-align: 0.00978849px; line-height: 0px; position: relative; font-size: 20px;&quot; class=&quot;SpellingError SCXP249253817 BCX0&quot;&gt;Capacidades&lt;/span&gt;&lt;/span&gt;&lt;span style=&quot;margin: 0px; padding: 0.00978849px 0px 0px; user-select: text; -webkit-user-drag: none; -webkit-tap-highlight-color: transparent; touch-action: pan-x pan-y; font-variant-numeric: normal; font-variant-east-asian: normal; letter-spacing: 0px; text-align: left; font-size: 20px; font-kerning: none; line-height: 10px; vertical-align: -0.00978849px;&quot; lang=&quot;EN-US&quot; class=&quot;TextRun SCXP249253817 BCX0&quot; data-contrast=&quot;none&quot; data-usefontface=&quot;false&quot;&gt;&lt;span style=&quot;margin: 0px; padding: 0px; user-select: text; -webkit-user-drag: none; -webkit-tap-highlight-color: transparent; touch-action: pan-x pan-y; vertical-align: 0.00978849px; line-height: 0px; position: relative; font-size: 20px;&quot; class=&quot;NormalTextRun SCXP249253817 BCX0&quot;&gt;&amp;nbsp;de Core Banking Nueva&amp;nbsp;&lt;/span&gt;&lt;span style=&quot;margin: 0px; padding: 0px; user-select: text; -webkit-user-drag: none; -webkit-tap-highlight-color: transparent; touch-action: pan-x pan-y; background-repeat: repeat-x; background-position: left bottom; background-image: url(&amp;quot;data:image/gif;base64,R0lGODlhBQAEAJECAP////8AAAAAAAAAACH5BAEAAAIALAAAAAAFAAQAAAIIlGAXCCHrTCgAOw==&amp;quot;); border-bottom: 1px solid transparent; vertical-align: 0.00978849px; line-height: 0px; position: relative; font-size: 20px;&quot; class=&quot;SpellingError SCXP249253817 BCX0&quot;&gt;Arquitectura&lt;/span&gt;&lt;/span&gt;&lt;span style=&quot;margin: 0px; padding: 0px; user-select: text; -webkit-user-drag: none; -webkit-tap-highlight-color: transparent; touch-action: pan-x pan-y; text-align: left; font-size: 20px; line-height: 0px;&quot; class=&quot;EOP SCXP249253817 BCX0&quot;&gt;â€‹&lt;/span&gt;" style="rounded=1;whiteSpace=wrap;html=1;sketch=1;hachureGap=4;jiggle=2;curveFitting=1;fontFamily=Architects Daughter;fontSource=https%3A%2F%2Ffonts.googleapis.com%2Fcss%3Ffamily%3DArchitects%2BDaughter;fontSize=20;fontColor=#000000;labelBackgroundColor=none;" parent="1" vertex="1">
          <mxGeometry x="82.5" y="100" width="410" height="60" as="geometry" />
        </mxCell>
        <mxCell id="zCHwmClxqehuHZnsHQMJ-8" value="&lt;span style=&quot;margin: 0px; padding: 0.00978849px 0px 0px; user-select: text; -webkit-user-drag: none; -webkit-tap-highlight-color: transparent; touch-action: pan-x pan-y; font-variant-numeric: normal; font-variant-east-asian: normal; letter-spacing: 0px; text-align: left; font-size: 20px; font-kerning: none; line-height: 10px; vertical-align: -0.00978849px;&quot; lang=&quot;ES-ES&quot; class=&quot;TextRun SCXP138355457 BCX0&quot; data-contrast=&quot;none&quot; data-usefontface=&quot;false&quot;&gt;&lt;span style=&quot;margin: 0px; padding: 0px; user-select: text; -webkit-user-drag: none; -webkit-tap-highlight-color: transparent; touch-action: pan-x pan-y; vertical-align: 0.00978849px; line-height: 0px; position: relative; font-size: 20px;&quot; class=&quot;NormalTextRun SCXP138355457 BCX0&quot;&gt;Nuevo IAM&lt;/span&gt;&lt;/span&gt;&lt;span style=&quot;margin: 0px; padding: 0px; user-select: text; -webkit-user-drag: none; -webkit-tap-highlight-color: transparent; touch-action: pan-x pan-y; text-align: left; font-size: 20px; line-height: 0px;&quot; class=&quot;EOP SCXP138355457 BCX0&quot;&gt;â€‹&lt;/span&gt;" style="rounded=1;whiteSpace=wrap;html=1;sketch=1;hachureGap=4;jiggle=2;curveFitting=1;fontFamily=Architects Daughter;fontSource=https%3A%2F%2Ffonts.googleapis.com%2Fcss%3Ffamily%3DArchitects%2BDaughter;fontSize=20;labelBackgroundColor=none;fillColor=#f8cecc;strokeColor=#b85450;" parent="1" vertex="1">
          <mxGeometry x="85" y="234" width="405" height="60" as="geometry" />
        </mxCell>
        <mxCell id="zCHwmClxqehuHZnsHQMJ-9" value="&lt;span style=&quot;margin: 0px; padding: 0.00978849px 0px 0px; user-select: text; -webkit-user-drag: none; -webkit-tap-highlight-color: transparent; touch-action: pan-x pan-y; font-variant-numeric: normal; font-variant-east-asian: normal; letter-spacing: 0px; text-align: left; font-size: 20px; font-kerning: none; line-height: 10px; vertical-align: -0.00978849px;&quot; lang=&quot;EN-US&quot; class=&quot;TextRun SCXP215410241 BCX0&quot; data-contrast=&quot;none&quot; data-usefontface=&quot;false&quot; data-scheme-color=&quot;@B55F00,8,18:75000&quot;&gt;&lt;span style=&quot;margin: 0px; padding: 0px; user-select: text; -webkit-user-drag: none; -webkit-tap-highlight-color: transparent; touch-action: pan-x pan-y; vertical-align: 0.00978849px; line-height: 0px; position: relative; font-size: 20px;&quot; class=&quot;NormalTextRun SCXP215410241 BCX0&quot;&gt;Nuevo Gestor Documental&lt;/span&gt;&lt;/span&gt;&lt;span style=&quot;margin: 0px; padding: 0px; user-select: text; -webkit-user-drag: none; -webkit-tap-highlight-color: transparent; touch-action: pan-x pan-y; text-align: left; font-size: 20px; line-height: 0px;&quot; class=&quot;EOP SCXP215410241 BCX0&quot;&gt;â€‹&lt;/span&gt;" style="rounded=1;whiteSpace=wrap;html=1;sketch=1;hachureGap=4;jiggle=2;curveFitting=1;fontFamily=Architects Daughter;fontSource=https%3A%2F%2Ffonts.googleapis.com%2Fcss%3Ffamily%3DArchitects%2BDaughter;fontSize=20;labelBackgroundColor=none;fillColor=#d5e8d4;strokeColor=#82b366;" parent="1" vertex="1">
          <mxGeometry x="80" y="-700" width="405" height="60" as="geometry" />
        </mxCell>
        <mxCell id="zCHwmClxqehuHZnsHQMJ-10" value="&lt;span style=&quot;margin: 0px; padding: 0.00978849px 0px 0px; user-select: text; -webkit-user-drag: none; -webkit-tap-highlight-color: transparent; touch-action: pan-x pan-y; font-variant-numeric: normal; font-variant-east-asian: normal; letter-spacing: 0px; text-align: left; font-size: 20px; font-kerning: none; line-height: 10px; vertical-align: -0.00978849px;&quot; lang=&quot;EN-US&quot; class=&quot;TextRun SCXP170444952 BCX0&quot; data-contrast=&quot;none&quot; data-usefontface=&quot;false&quot; data-scheme-color=&quot;@B55F00,8,18:75000&quot;&gt;&lt;span style=&quot;margin: 0px; padding: 0px; user-select: text; -webkit-user-drag: none; -webkit-tap-highlight-color: transparent; touch-action: pan-x pan-y; background-repeat: repeat-x; background-position: left bottom; background-image: url(&amp;quot;data:image/gif;base64,R0lGODlhBQAEAJECAP////8AAAAAAAAAACH5BAEAAAIALAAAAAAFAAQAAAIIlGAXCCHrTCgAOw==&amp;quot;); border-bottom: 1px solid transparent; vertical-align: 0.00978849px; line-height: 0px; position: relative; font-size: 20px;&quot; class=&quot;SpellingError SCXP170444952 BCX0&quot;&gt;Generador&lt;/span&gt;&lt;/span&gt;&lt;span style=&quot;margin: 0px; padding: 0.00978849px 0px 0px; user-select: text; -webkit-user-drag: none; -webkit-tap-highlight-color: transparent; touch-action: pan-x pan-y; font-variant-numeric: normal; font-variant-east-asian: normal; letter-spacing: 0px; text-align: left; font-size: 20px; font-kerning: none; line-height: 10px; vertical-align: -0.00978849px;&quot; lang=&quot;EN-US&quot; class=&quot;TextRun SCXP170444952 BCX0&quot; data-contrast=&quot;none&quot; data-usefontface=&quot;false&quot; data-scheme-color=&quot;@B55F00,8,18:75000&quot;&gt;&lt;span style=&quot;margin: 0px; padding: 0px; user-select: text; -webkit-user-drag: none; -webkit-tap-highlight-color: transparent; touch-action: pan-x pan-y; vertical-align: 0.00978849px; line-height: 0px; position: relative; font-size: 20px;&quot; class=&quot;NormalTextRun SCXP170444952 BCX0&quot;&gt;&amp;nbsp;&lt;/span&gt;&lt;/span&gt;&lt;span style=&quot;margin: 0px; padding: 0.00978849px 0px 0px; user-select: text; -webkit-user-drag: none; -webkit-tap-highlight-color: transparent; touch-action: pan-x pan-y; font-variant-numeric: normal; font-variant-east-asian: normal; letter-spacing: 0px; text-align: left; font-size: 20px; font-kerning: none; line-height: 10px; vertical-align: -0.00978849px;&quot; lang=&quot;EN-US&quot; class=&quot;TextRun SCXP170444952 BCX0&quot; data-contrast=&quot;none&quot; data-usefontface=&quot;false&quot; data-scheme-color=&quot;@B55F00,8,18:75000&quot;&gt;&lt;span style=&quot;margin: 0px; padding: 0px; user-select: text; -webkit-user-drag: none; -webkit-tap-highlight-color: transparent; touch-action: pan-x pan-y; background-repeat: repeat-x; background-position: left bottom; background-image: url(&amp;quot;data:image/gif;base64,R0lGODlhBQAEAJECAP////8AAAAAAAAAACH5BAEAAAIALAAAAAAFAAQAAAIIlGAXCCHrTCgAOw==&amp;quot;); border-bottom: 1px solid transparent; vertical-align: 0.00978849px; line-height: 0px; position: relative; font-size: 20px;&quot; class=&quot;SpellingError SCXP170444952 BCX0&quot;&gt;Firma&lt;/span&gt;&lt;/span&gt;&lt;span style=&quot;margin: 0px; padding: 0.00978849px 0px 0px; user-select: text; -webkit-user-drag: none; -webkit-tap-highlight-color: transparent; touch-action: pan-x pan-y; font-variant-numeric: normal; font-variant-east-asian: normal; letter-spacing: 0px; text-align: left; font-size: 20px; font-kerning: none; line-height: 10px; vertical-align: -0.00978849px;&quot; lang=&quot;EN-US&quot; class=&quot;TextRun SCXP170444952 BCX0&quot; data-contrast=&quot;none&quot; data-usefontface=&quot;false&quot; data-scheme-color=&quot;@B55F00,8,18:75000&quot;&gt;&lt;span style=&quot;margin: 0px; padding: 0px; user-select: text; -webkit-user-drag: none; -webkit-tap-highlight-color: transparent; touch-action: pan-x pan-y; vertical-align: 0.00978849px; line-height: 0px; position: relative; font-size: 20px;&quot; class=&quot;NormalTextRun SCXP170444952 BCX0&quot;&gt;&amp;nbsp;electronica&amp;nbsp;&lt;/span&gt;&lt;/span&gt;&lt;span style=&quot;margin: 0px; padding: 0.00978849px 0px 0px; user-select: text; -webkit-user-drag: none; -webkit-tap-highlight-color: transparent; touch-action: pan-x pan-y; font-variant-numeric: normal; font-variant-east-asian: normal; letter-spacing: 0px; text-align: left; font-size: 20px; font-kerning: none; line-height: 10px; vertical-align: -0.00978849px;&quot; lang=&quot;EN-US&quot; class=&quot;TextRun SCXP170444952 BCX0&quot; data-contrast=&quot;none&quot; data-usefontface=&quot;false&quot; data-scheme-color=&quot;@B55F00,8,18:75000&quot;&gt;&lt;span style=&quot;margin: 0px; padding: 0px; user-select: text; -webkit-user-drag: none; -webkit-tap-highlight-color: transparent; touch-action: pan-x pan-y; background-repeat: repeat-x; background-position: left bottom; background-image: url(&amp;quot;data:image/gif;base64,R0lGODlhBQAEAJECAP////8AAAAAAAAAACH5BAEAAAIALAAAAAAFAAQAAAIIlGAXCCHrTCgAOw==&amp;quot;); border-bottom: 1px solid transparent; vertical-align: 0.00978849px; line-height: 0px; position: relative; font-size: 20px;&quot; class=&quot;SpellingError SCXP170444952 BCX0&quot;&gt;certificada&lt;/span&gt;&lt;/span&gt;&lt;span style=&quot;margin: 0px; padding: 0.00978849px 0px 0px; user-select: text; -webkit-user-drag: none; -webkit-tap-highlight-color: transparent; touch-action: pan-x pan-y; font-variant-numeric: normal; font-variant-east-asian: normal; letter-spacing: 0px; text-align: left; font-size: 20px; font-kerning: none; line-height: 10px; vertical-align: -0.00978849px;&quot; lang=&quot;EN-US&quot; class=&quot;TextRun SCXP170444952 BCX0&quot; data-contrast=&quot;none&quot; data-usefontface=&quot;false&quot; data-scheme-color=&quot;@B55F00,8,18:75000&quot;&gt;&lt;span style=&quot;margin: 0px; padding: 0px; user-select: text; -webkit-user-drag: none; -webkit-tap-highlight-color: transparent; touch-action: pan-x pan-y; vertical-align: 0.00978849px; line-height: 0px; position: relative; font-size: 20px;&quot; class=&quot;NormalTextRun SCXP170444952 BCX0&quot;&gt;.&lt;/span&gt;&lt;/span&gt;&lt;span style=&quot;margin: 0px; padding: 0px; user-select: text; -webkit-user-drag: none; -webkit-tap-highlight-color: transparent; touch-action: pan-x pan-y; text-align: left; font-size: 20px; line-height: 0px;&quot; class=&quot;EOP SCXP170444952 BCX0&quot;&gt;â€‹&lt;/span&gt;" style="rounded=1;whiteSpace=wrap;html=1;sketch=1;hachureGap=4;jiggle=2;curveFitting=1;fontFamily=Architects Daughter;fontSource=https%3A%2F%2Ffonts.googleapis.com%2Fcss%3Ffamily%3DArchitects%2BDaughter;fontSize=20;fontColor=#000000;labelBackgroundColor=none;" parent="1" vertex="1">
          <mxGeometry x="80" y="-620" width="405" height="60" as="geometry" />
        </mxCell>
        <mxCell id="zCHwmClxqehuHZnsHQMJ-11" value="&lt;span style=&quot;margin: 0px; padding: 0.00978849px 0px 0px; user-select: text; -webkit-user-drag: none; -webkit-tap-highlight-color: transparent; touch-action: pan-x pan-y; font-variant-numeric: normal; font-variant-east-asian: normal; letter-spacing: 0px; text-align: left; font-size: 20px; font-kerning: none; line-height: 10px; vertical-align: -0.00978849px;&quot; lang=&quot;ES-MX&quot; class=&quot;TextRun SCXP256422290 BCX0&quot; data-contrast=&quot;none&quot; data-usefontface=&quot;false&quot;&gt;&lt;span style=&quot;margin: 0px; padding: 0px; user-select: text; -webkit-user-drag: none; -webkit-tap-highlight-color: transparent; touch-action: pan-x pan-y; vertical-align: 0.00978849px; line-height: 0px; position: relative; font-size: 20px;&quot; class=&quot;NormalTextRun SCXP256422290 BCX0&quot;&gt;Nuevo motor de reglas&lt;/span&gt;&lt;/span&gt;&lt;span style=&quot;margin: 0px; padding: 0px; user-select: text; -webkit-user-drag: none; -webkit-tap-highlight-color: transparent; touch-action: pan-x pan-y; text-align: left; font-size: 20px; line-height: 0px;&quot; class=&quot;EOP SCXP256422290 BCX0&quot;&gt;â€‹&lt;/span&gt;" style="rounded=1;whiteSpace=wrap;html=1;sketch=1;hachureGap=4;jiggle=2;curveFitting=1;fontFamily=Architects Daughter;fontSource=https%3A%2F%2Ffonts.googleapis.com%2Fcss%3Ffamily%3DArchitects%2BDaughter;fontSize=20;fontColor=#000000;labelBackgroundColor=none;" parent="1" vertex="1">
          <mxGeometry x="85" y="366" width="405" height="60" as="geometry" />
        </mxCell>
        <mxCell id="zCHwmClxqehuHZnsHQMJ-12" value="&lt;span style=&quot;accent-color: auto; place-content: normal; place-items: normal; place-self: auto; alignment-baseline: auto; animation: 0s ease 0s 1 normal none running none; app-region: none; appearance: none; aspect-ratio: auto; backdrop-filter: none; backface-visibility: visible; background-image: none; background-position: 0% 0%; background-size: auto; background-repeat: repeat; background-attachment: scroll; background-origin: padding-box; background-clip: border-box; background-blend-mode: normal; baseline-shift: 0px; border-image: none 100% / 1 / 0 stretch; border-color: rgb(0, 0, 0); border-collapse: separate; border-end-end-radius: 0px; border-end-start-radius: 0px; border-width: 0px; border-style: none; border-spacing: 0px; border-start-end-radius: 0px; border-start-start-radius: 0px; border-radius: 0px; inset: auto; box-shadow: none; box-sizing: content-box; break-after: auto; break-before: auto; break-inside: auto; buffered-rendering: auto; caption-side: top; caret-color: rgb(0, 0, 0); clear: none; clip: auto; clip-path: none; clip-rule: nonzero; color-interpolation: srgb; color-interpolation-filters: linearrgb; color-rendering: auto; color-scheme: normal; columns: auto auto; column-fill: balance; gap: normal; column-rule: 0px none rgb(0, 0, 0); column-span: none; contain: none; contain-intrinsic-block-size: none; contain-intrinsic-size: none; contain-intrinsic-inline-size: none; container: none; content: normal; content-visibility: visible; counter-increment: none; counter-reset: none; counter-set: none; cursor: text; cx: 0px; cy: 0px; d: none; direction: ltr; display: inline; dominant-baseline: auto; empty-cells: show; fill: rgb(0, 0, 0); fill-opacity: 1; fill-rule: nonzero; filter: none; flex: 0 1 auto; flex-flow: row nowrap; float: none; flood-color: rgb(0, 0, 0); flood-opacity: 1; font-feature-settings: normal; font-kerning: none; font-optical-sizing: auto; font-palette: normal; font-size: 20px; font-stretch: 100%; font-synthesis: weight style small-caps; font-variant-ligatures: no-common-ligatures no-discretionary-ligatures no-historical-ligatures no-contextual; font-variant-numeric: normal; font-variant-east-asian: normal; font-variation-settings: normal; forced-color-adjust: auto; grid-area: auto / auto / auto / auto; grid: auto-flow auto / none; height: auto; hyphenate-character: auto; hyphens: manual; image-orientation: from-image; image-rendering: auto; inline-size: auto; inset-block: auto; inset-inline: auto; isolation: auto; lighting-color: rgb(255, 255, 255); line-height: 10px; list-style: outside none disc; margin: 0px; marker: none; mask: none; mask-type: luminance; max-height: none; max-width: none; min-height: 0px; min-width: 0px; mix-blend-mode: normal; object-fit: fill; object-position: 50% 50%; object-view-box: none; offset: none 0px auto 0deg; opacity: 1; order: 0; outline: rgb(0, 0, 0) none 0px; outline-offset: 0px; overflow: visible; overflow-anchor: auto; overflow-clip-margin: 0px; overflow-wrap: break-word; overscroll-behavior-block: auto; overscroll-behavior-inline: auto; overscroll-behavior: auto; padding: 0.00978849px 0px 0px; page: auto; paint-order: normal; perspective: none; perspective-origin: 0px 0px; pointer-events: all; position: static; quotes: auto; r: 0px; resize: none; rotate: none; ruby-position: over; rx: auto; ry: auto; scale: none; scroll-behavior: auto; scroll-margin-block: 0px; scroll-margin: 0px; scroll-margin-inline: 0px; scroll-padding-block: auto; scroll-padding: auto; scroll-padding-inline: auto; scroll-snap-align: none; scroll-snap-stop: normal; scroll-snap-type: none; scrollbar-gutter: auto; shape-image-threshold: 0; shape-margin: 0px; shape-outside: none; shape-rendering: auto; speak: normal; stop-color: rgb(0, 0, 0); stop-opacity: 1; stroke: none; stroke-dasharray: none; stroke-dashoffset: 0px; stroke-linecap: butt; stroke-linejoin: miter; stroke-miterlimit: 4; stroke-opacity: 1; stroke-width: 1px; tab-size: 8; table-layout: auto; text-align: left; text-align-last: auto; text-anchor: start; text-combine-upright: none; text-decoration-style: solid; text-decoration-color: rgb(0, 0, 0); text-decoration-skip-ink: none; text-emphasis: none rgb(0, 0, 0); text-emphasis-position: over; text-orientation: mixed; text-overflow: clip; text-rendering: auto; text-shadow: none; text-size-adjust: auto; text-underline-offset: auto; text-underline-position: auto; touch-action: pan-x pan-y; transform: none; transform-box: view-box; transform-origin: 0px 0px; transform-style: flat; transition: all 0s ease 0s; translate: none; unicode-bidi: normal; user-select: text; vector-effect: none; vertical-align: -0.00978849px; visibility: visible; border-block-end: 0px none rgb(0, 0, 0); border-block-start: 0px none rgb(0, 0, 0); border-inline-end: 0px none rgb(0, 0, 0); -webkit-border-image: none; border-inline-start: 0px none rgb(0, 0, 0); -webkit-box-align: stretch; -webkit-box-decoration-break: slice; -webkit-box-direction: normal; -webkit-box-flex: 0; -webkit-box-ordinal-group: 1; -webkit-box-orient: horizontal; -webkit-box-pack: start; -webkit-font-smoothing: auto; -webkit-highlight: none; -webkit-line-break: after-white-space; -webkit-locale: &amp;quot;en-US&amp;quot;; block-size: auto; margin-block: 0px; margin-inline: 0px; -webkit-mask-box-image-source: none; -webkit-mask-box-image-slice: 0 fill; -webkit-mask-box-image-width: auto; -webkit-mask-box-image-outset: 0; -webkit-mask-box-image-repeat: stretch; -webkit-mask: none 0% 0% / auto repeat border-box border-box; -webkit-mask-composite: source-over; max-block-size: none; max-inline-size: none; min-block-size: 0px; min-inline-size: 0px; padding-block: 0.00978849px 0px; padding-inline: 0px; -webkit-print-color-adjust: economy; -webkit-rtl-ordering: logical; -webkit-ruby-position: before; -webkit-tap-highlight-color: rgba(0, 0, 0, 0); -webkit-text-combine: none; -webkit-text-fill-color: rgb(0, 0, 0); -webkit-text-orientation: vertical-right; -webkit-text-security: none; -webkit-text-stroke-color: rgb(0, 0, 0); -webkit-user-drag: none; -webkit-user-modify: read-write; -webkit-writing-mode: horizontal-tb; width: auto; will-change: auto; word-break: normal; writing-mode: horizontal-tb; x: 0px; y: 0px; z-index: auto; zoom: 1;&quot; lang=&quot;EN-US&quot; class=&quot;TextRun SCXP247995841 BCX0&quot; data-contrast=&quot;none&quot; data-usefontface=&quot;false&quot;&gt;&lt;span style=&quot;vertical-align: 0.00978849px; line-height: 0px; position: relative; font-size: 20px;&quot; class=&quot;SpellingError SCXP247995841 BCX0&quot;&gt;TokenizaciÃ³n&lt;/span&gt;&lt;/span&gt;" style="rounded=1;whiteSpace=wrap;html=1;sketch=1;hachureGap=4;jiggle=2;curveFitting=1;fontFamily=Architects Daughter;fontSource=https%3A%2F%2Ffonts.googleapis.com%2Fcss%3Ffamily%3DArchitects%2BDaughter;fontSize=20;fontColor=#000000;labelBackgroundColor=none;" parent="1" vertex="1">
          <mxGeometry x="80" y="-190" width="405" height="60" as="geometry" />
        </mxCell>
        <mxCell id="zCHwmClxqehuHZnsHQMJ-13" value="&lt;span style=&quot;margin: 0px; padding: 0.00978849px 0px 0px; user-select: text; -webkit-user-drag: none; -webkit-tap-highlight-color: transparent; touch-action: pan-x pan-y; font-variant-numeric: normal; font-variant-east-asian: normal; letter-spacing: 0px; text-align: left; font-size: 20px; font-kerning: none; line-height: 10px; vertical-align: -0.00978849px;&quot; lang=&quot;ES-ES&quot; class=&quot;TextRun SCXP55534440 BCX0&quot; data-contrast=&quot;none&quot; data-usefontface=&quot;false&quot;&gt;&lt;span style=&quot;margin: 0px; padding: 0px; user-select: text; -webkit-user-drag: none; -webkit-tap-highlight-color: transparent; touch-action: pan-x pan-y; vertical-align: 0.00978849px; line-height: 0px; position: relative; font-size: 20px;&quot; class=&quot;NormalTextRun SCXP55534440 BCX0&quot;&gt;EmisiÃ³n digital&lt;/span&gt;&lt;/span&gt;&lt;span style=&quot;margin: 0px; padding: 0px; user-select: text; -webkit-user-drag: none; -webkit-tap-highlight-color: transparent; touch-action: pan-x pan-y; text-align: left; font-size: 20px; line-height: 0px;&quot; class=&quot;EOP SCXP55534440 BCX0&quot;&gt;â€‹&lt;/span&gt;" style="rounded=1;whiteSpace=wrap;html=1;sketch=1;hachureGap=4;jiggle=2;curveFitting=1;fontFamily=Architects Daughter;fontSource=https%3A%2F%2Ffonts.googleapis.com%2Fcss%3Ffamily%3DArchitects%2BDaughter;fontSize=20;fontColor=#000000;labelBackgroundColor=none;" parent="1" vertex="1">
          <mxGeometry x="80" y="-118" width="405" height="60" as="geometry" />
        </mxCell>
        <mxCell id="zCHwmClxqehuHZnsHQMJ-14" value="&lt;span style=&quot;margin: 0px; padding: 0.00978849px 0px 0px; user-select: text; -webkit-user-drag: none; -webkit-tap-highlight-color: transparent; touch-action: pan-x pan-y; font-variant-numeric: normal; font-variant-east-asian: normal; letter-spacing: 0px; text-align: left; font-size: 20px; font-kerning: none; line-height: 10px; vertical-align: -0.00978849px;&quot; lang=&quot;ES-ES&quot; class=&quot;TextRun SCXP144491287 BCX0&quot; data-contrast=&quot;none&quot; data-usefontface=&quot;false&quot;&gt;&lt;span style=&quot;margin: 0px; padding: 0px; user-select: text; -webkit-user-drag: none; -webkit-tap-highlight-color: transparent; touch-action: pan-x pan-y; vertical-align: 0.00978849px; line-height: 0px; position: relative; font-size: 20px;&quot; class=&quot;NormalTextRun SCXP144491287 BCX0&quot;&gt;C V&amp;nbsp;&lt;/span&gt;&lt;/span&gt;&lt;span style=&quot;margin: 0px; padding: 0.00978849px 0px 0px; user-select: text; -webkit-user-drag: none; -webkit-tap-highlight-color: transparent; touch-action: pan-x pan-y; font-variant-numeric: normal; font-variant-east-asian: normal; letter-spacing: 0px; text-align: left; font-size: 20px; font-kerning: none; line-height: 10px; vertical-align: -0.00978849px;&quot; lang=&quot;ES-ES&quot; class=&quot;TextRun SCXP144491287 BCX0&quot; data-contrast=&quot;none&quot; data-usefontface=&quot;false&quot;&gt;&lt;span style=&quot;margin: 0px; padding: 0px; user-select: text; -webkit-user-drag: none; -webkit-tap-highlight-color: transparent; touch-action: pan-x pan-y; background-repeat: repeat-x; background-position: left bottom; background-image: url(&amp;quot;data:image/gif;base64,R0lGODlhBQAEAJECAP////8AAAAAAAAAACH5BAEAAAIALAAAAAAFAAQAAAIIlGAXCCHrTCgAOw==&amp;quot;); border-bottom: 1px solid transparent; vertical-align: 0.00978849px; line-height: 0px; position: relative; font-size: 20px;&quot; class=&quot;SpellingError SCXP144491287 BCX0&quot;&gt;V&lt;/span&gt;&lt;/span&gt;&lt;span style=&quot;margin: 0px; padding: 0.00978849px 0px 0px; user-select: text; -webkit-user-drag: none; -webkit-tap-highlight-color: transparent; touch-action: pan-x pan-y; font-variant-numeric: normal; font-variant-east-asian: normal; letter-spacing: 0px; text-align: left; font-size: 20px; font-kerning: none; line-height: 10px; vertical-align: -0.00978849px;&quot; lang=&quot;ES-ES&quot; class=&quot;TextRun SCXP144491287 BCX0&quot; data-contrast=&quot;none&quot; data-usefontface=&quot;false&quot;&gt;&lt;span style=&quot;margin: 0px; padding: 0px; user-select: text; -webkit-user-drag: none; -webkit-tap-highlight-color: transparent; touch-action: pan-x pan-y; vertical-align: 0.00978849px; line-height: 0px; position: relative; font-size: 20px;&quot; class=&quot;NormalTextRun SCXP144491287 BCX0&quot;&gt;&amp;nbsp;DinÃ¡mico&lt;/span&gt;&lt;/span&gt;&lt;span style=&quot;margin: 0px; padding: 0px; user-select: text; -webkit-user-drag: none; -webkit-tap-highlight-color: transparent; touch-action: pan-x pan-y; text-align: left; font-size: 20px; line-height: 0px;&quot; class=&quot;EOP SCXP144491287 BCX0&quot;&gt;â€‹&lt;/span&gt;" style="rounded=1;whiteSpace=wrap;html=1;sketch=1;hachureGap=4;jiggle=2;curveFitting=1;fontFamily=Architects Daughter;fontSource=https%3A%2F%2Ffonts.googleapis.com%2Fcss%3Ffamily%3DArchitects%2BDaughter;fontSize=20;fontColor=#000000;labelBackgroundColor=none;" parent="1" vertex="1">
          <mxGeometry x="80" y="-42" width="405" height="60" as="geometry" />
        </mxCell>
        <mxCell id="zCHwmClxqehuHZnsHQMJ-15" value="Como se estan midiendo" style="rounded=1;whiteSpace=wrap;html=1;sketch=1;hachureGap=4;jiggle=2;curveFitting=1;fontFamily=Architects Daughter;fontSource=https%3A%2F%2Ffonts.googleapis.com%2Fcss%3Ffamily%3DArchitects%2BDaughter;fontSize=20;" parent="1" vertex="1">
          <mxGeometry x="593" y="-990" width="250" height="1430" as="geometry" />
        </mxCell>
        <mxCell id="zCHwmClxqehuHZnsHQMJ-17" value="Custodia/DueÃ±o/tema OKR de alto impacto" style="whiteSpace=wrap;html=1;fontSize=20;fontFamily=Architects Daughter;fontColor=#000000;rounded=1;sketch=1;hachureGap=4;jiggle=2;curveFitting=1;fontSource=https%3A%2F%2Ffonts.googleapis.com%2Fcss%3Ffamily%3DArchitects%2BDaughter;labelBackgroundColor=none;" parent="1" vertex="1">
          <mxGeometry x="21" y="-1080" width="549" height="50" as="geometry" />
        </mxCell>
      </root>
    </mxGraphModel>
  </diagram>
  <diagram name="POC" id="kqnXD6m9YXMOY7LqXLp8">
    <mxGraphModel dx="873" dy="1552" grid="1" gridSize="10" guides="1" tooltips="1" connect="1" arrows="1" fold="1" page="1" pageScale="1" pageWidth="850" pageHeight="1100" math="0" shadow="0">
      <root>
        <mxCell id="_bcPP0k4VmUGyIp4uJ1w-0" />
        <mxCell id="_bcPP0k4VmUGyIp4uJ1w-1" parent="_bcPP0k4VmUGyIp4uJ1w-0" />
        <mxCell id="_bcPP0k4VmUGyIp4uJ1w-7" value="Santiago de Jesus Vargas" style="rounded=1;whiteSpace=wrap;html=1;sketch=1;hachureGap=4;jiggle=2;curveFitting=1;fontFamily=Architects Daughter;fontSource=https%3A%2F%2Ffonts.googleapis.com%2Fcss%3Ffamily%3DArchitects%2BDaughter;fontSize=20;fontColor=#000000;labelBackgroundColor=none;verticalAlign=top;align=left;spacingLeft=23;" parent="_bcPP0k4VmUGyIp4uJ1w-1" vertex="1">
          <mxGeometry x="20" y="-990" width="550" height="1090" as="geometry" />
        </mxCell>
        <UserObject label="Monese" link="https://pichincha-my.sharepoint.com/:f:/r/personal/svargasb_pichincha_com/Documents/Santiago/Nuevas%20Capacidades/Mis%20temas/2_POC/ANC_POC_Monese?csf=1&amp;web=1&amp;e=NTrSIB" id="_bcPP0k4VmUGyIp4uJ1w-8">
          <mxCell style="rounded=1;whiteSpace=wrap;html=1;sketch=1;hachureGap=4;jiggle=2;curveFitting=1;fontFamily=Architects Daughter;fontSource=https%3A%2F%2Ffonts.googleapis.com%2Fcss%3Ffamily%3DArchitects%2BDaughter;fontSize=20;fontColor=#000000;labelBackgroundColor=none;" parent="_bcPP0k4VmUGyIp4uJ1w-1" vertex="1">
            <mxGeometry x="80" y="-930" width="410" height="60" as="geometry" />
          </mxCell>
        </UserObject>
        <mxCell id="_bcPP0k4VmUGyIp4uJ1w-9" value="Biometria por voz" style="text;whiteSpace=wrap;html=1;fontSize=20;fontFamily=Architects Daughter;align=center;verticalAlign=middle;fillColor=default;strokeColor=default;rounded=1;sketch=1;hachureGap=4;jiggle=2;curveFitting=1;fontSource=https%3A%2F%2Ffonts.googleapis.com%2Fcss%3Ffamily%3DArchitects%2BDaughter;fontColor=#000000;labelBackgroundColor=none;" parent="_bcPP0k4VmUGyIp4uJ1w-1" vertex="1">
          <mxGeometry x="77.5" y="-540" width="410" height="60" as="geometry" />
        </mxCell>
        <mxCell id="_bcPP0k4VmUGyIp4uJ1w-10" value="&lt;div style=&quot;text-align: left;&quot;&gt;&lt;span style=&quot;background-color: initial;&quot;&gt;Biometria facial&lt;/span&gt;&lt;/div&gt;" style="rounded=1;whiteSpace=wrap;html=1;sketch=1;hachureGap=4;jiggle=2;curveFitting=1;fontFamily=Architects Daughter;fontSource=https%3A%2F%2Ffonts.googleapis.com%2Fcss%3Ffamily%3DArchitects%2BDaughter;fontSize=20;gradientColor=none;fontColor=#000000;labelBackgroundColor=none;" parent="_bcPP0k4VmUGyIp4uJ1w-1" vertex="1">
          <mxGeometry x="77.5" y="-460" width="410" height="60" as="geometry" />
        </mxCell>
        <mxCell id="_bcPP0k4VmUGyIp4uJ1w-12" value="&lt;div style=&quot;text-align: left;&quot;&gt;Mock Banca mÃ³vil&lt;/div&gt;" style="rounded=1;whiteSpace=wrap;html=1;sketch=1;hachureGap=4;jiggle=2;curveFitting=1;fontFamily=Architects Daughter;fontSource=https%3A%2F%2Ffonts.googleapis.com%2Fcss%3Ffamily%3DArchitects%2BDaughter;fontSize=20;fontColor=#000000;labelBackgroundColor=none;" parent="_bcPP0k4VmUGyIp4uJ1w-1" vertex="1">
          <mxGeometry x="80" y="-765" width="410" height="60" as="geometry" />
        </mxCell>
        <mxCell id="_bcPP0k4VmUGyIp4uJ1w-13" value="&lt;div style=&quot;text-align: left;&quot;&gt;Libreria Super APP&lt;/div&gt;" style="rounded=1;whiteSpace=wrap;html=1;sketch=1;hachureGap=4;jiggle=2;curveFitting=1;fontFamily=Architects Daughter;fontSource=https%3A%2F%2Ffonts.googleapis.com%2Fcss%3Ffamily%3DArchitects%2BDaughter;fontSize=20;fontColor=#000000;labelBackgroundColor=none;" parent="_bcPP0k4VmUGyIp4uJ1w-1" vertex="1">
          <mxGeometry x="80" y="-685" width="410" height="60" as="geometry" />
        </mxCell>
        <mxCell id="_bcPP0k4VmUGyIp4uJ1w-14" value="Smart contracts" style="rounded=1;whiteSpace=wrap;html=1;sketch=1;hachureGap=4;jiggle=2;curveFitting=1;fontFamily=Architects Daughter;fontSource=https%3A%2F%2Ffonts.googleapis.com%2Fcss%3Ffamily%3DArchitects%2BDaughter;fontSize=20;fontColor=#000000;labelBackgroundColor=none;" parent="_bcPP0k4VmUGyIp4uJ1w-1" vertex="1">
          <mxGeometry x="80" y="-70" width="400" height="60" as="geometry" />
        </mxCell>
        <mxCell id="_bcPP0k4VmUGyIp4uJ1w-15" value="Chatbot" style="rounded=1;whiteSpace=wrap;html=1;sketch=1;hachureGap=4;jiggle=2;curveFitting=1;fontFamily=Architects Daughter;fontSource=https%3A%2F%2Ffonts.googleapis.com%2Fcss%3Ffamily%3DArchitects%2BDaughter;fontSize=20;fontColor=#000000;labelBackgroundColor=none;" parent="_bcPP0k4VmUGyIp4uJ1w-1" vertex="1">
          <mxGeometry x="77.5" width="405" height="60" as="geometry" />
        </mxCell>
        <mxCell id="_bcPP0k4VmUGyIp4uJ1w-16" value="&lt;div style=&quot;text-align: left;&quot;&gt;&lt;span style=&quot;background-color: initial;&quot;&gt;Biometria de huellas&lt;/span&gt;&lt;/div&gt;" style="rounded=1;whiteSpace=wrap;html=1;sketch=1;hachureGap=4;jiggle=2;curveFitting=1;fontFamily=Architects Daughter;fontSource=https%3A%2F%2Ffonts.googleapis.com%2Fcss%3Ffamily%3DArchitects%2BDaughter;fontSize=20;fontColor=#000000;labelBackgroundColor=none;" parent="_bcPP0k4VmUGyIp4uJ1w-1" vertex="1">
          <mxGeometry x="77.5" y="-380" width="405" height="60" as="geometry" />
        </mxCell>
        <mxCell id="_bcPP0k4VmUGyIp4uJ1w-17" value="&lt;div style=&quot;text-align: left;&quot;&gt;&lt;span style=&quot;background-color: initial;&quot;&gt;Morfologia de firmas&lt;/span&gt;&lt;/div&gt;" style="rounded=1;whiteSpace=wrap;html=1;sketch=1;hachureGap=4;jiggle=2;curveFitting=1;fontFamily=Architects Daughter;fontSource=https%3A%2F%2Ffonts.googleapis.com%2Fcss%3Ffamily%3DArchitects%2BDaughter;fontSize=20;fontColor=#000000;labelBackgroundColor=none;" parent="_bcPP0k4VmUGyIp4uJ1w-1" vertex="1">
          <mxGeometry x="80" y="-855" width="405" height="60" as="geometry" />
        </mxCell>
        <mxCell id="_bcPP0k4VmUGyIp4uJ1w-19" value="&lt;span style=&quot;accent-color: auto; place-content: normal; place-items: normal; place-self: auto; alignment-baseline: auto; animation: 0s ease 0s 1 normal none running none; app-region: none; appearance: none; aspect-ratio: auto; backdrop-filter: none; backface-visibility: visible; background-image: none; background-position: 0% 0%; background-size: auto; background-repeat: repeat; background-attachment: scroll; background-origin: padding-box; background-clip: border-box; background-blend-mode: normal; baseline-shift: 0px; border-image: none 100% / 1 / 0 stretch; border-color: rgb(0, 0, 0); border-collapse: separate; border-end-end-radius: 0px; border-end-start-radius: 0px; border-width: 0px; border-style: none; border-spacing: 0px; border-start-end-radius: 0px; border-start-start-radius: 0px; border-radius: 0px; inset: auto; box-shadow: none; box-sizing: content-box; break-after: auto; break-before: auto; break-inside: auto; buffered-rendering: auto; caption-side: top; caret-color: rgb(0, 0, 0); clear: none; clip: auto; clip-path: none; clip-rule: nonzero; color-interpolation: srgb; color-interpolation-filters: linearrgb; color-rendering: auto; color-scheme: normal; columns: auto auto; column-fill: balance; gap: normal; column-rule: 0px none rgb(0, 0, 0); column-span: none; contain: none; contain-intrinsic-block-size: none; contain-intrinsic-size: none; contain-intrinsic-inline-size: none; container: none; content: normal; content-visibility: visible; counter-increment: none; counter-reset: none; counter-set: none; cursor: text; cx: 0px; cy: 0px; d: none; direction: ltr; display: inline; dominant-baseline: auto; empty-cells: show; fill: rgb(0, 0, 0); fill-opacity: 1; fill-rule: nonzero; filter: none; flex: 0 1 auto; flex-flow: row nowrap; float: none; flood-color: rgb(0, 0, 0); flood-opacity: 1; font-feature-settings: normal; font-kerning: none; font-optical-sizing: auto; font-palette: normal; font-size: 20px; font-stretch: 100%; font-synthesis: weight style small-caps; font-variant-ligatures: no-common-ligatures no-discretionary-ligatures no-historical-ligatures no-contextual; font-variant-numeric: normal; font-variant-east-asian: normal; font-variation-settings: normal; forced-color-adjust: auto; grid-area: auto / auto / auto / auto; grid: auto-flow auto / none; height: auto; hyphenate-character: auto; hyphens: manual; image-orientation: from-image; image-rendering: auto; inline-size: auto; inset-block: auto; inset-inline: auto; isolation: auto; lighting-color: rgb(255, 255, 255); line-height: 10px; list-style: outside none disc; margin: 0px; marker: none; mask: none; mask-type: luminance; max-height: none; max-width: none; min-height: 0px; min-width: 0px; mix-blend-mode: normal; object-fit: fill; object-position: 50% 50%; object-view-box: none; offset: none 0px auto 0deg; opacity: 1; order: 0; outline: rgb(0, 0, 0) none 0px; outline-offset: 0px; overflow: visible; overflow-anchor: auto; overflow-clip-margin: 0px; overflow-wrap: break-word; overscroll-behavior-block: auto; overscroll-behavior-inline: auto; overscroll-behavior: auto; padding: 0.00978849px 0px 0px; page: auto; paint-order: normal; perspective: none; perspective-origin: 0px 0px; pointer-events: all; position: static; quotes: auto; r: 0px; resize: none; rotate: none; ruby-position: over; rx: auto; ry: auto; scale: none; scroll-behavior: auto; scroll-margin-block: 0px; scroll-margin: 0px; scroll-margin-inline: 0px; scroll-padding-block: auto; scroll-padding: auto; scroll-padding-inline: auto; scroll-snap-align: none; scroll-snap-stop: normal; scroll-snap-type: none; scrollbar-gutter: auto; shape-image-threshold: 0; shape-margin: 0px; shape-outside: none; shape-rendering: auto; speak: normal; stop-color: rgb(0, 0, 0); stop-opacity: 1; stroke: none; stroke-dasharray: none; stroke-dashoffset: 0px; stroke-linecap: butt; stroke-linejoin: miter; stroke-miterlimit: 4; stroke-opacity: 1; stroke-width: 1px; tab-size: 8; table-layout: auto; text-align: left; text-align-last: auto; text-anchor: start; text-combine-upright: none; text-decoration-style: solid; text-decoration-color: rgb(0, 0, 0); text-decoration-skip-ink: none; text-emphasis: none rgb(0, 0, 0); text-emphasis-position: over; text-orientation: mixed; text-overflow: clip; text-rendering: auto; text-shadow: none; text-size-adjust: auto; text-underline-offset: auto; text-underline-position: auto; touch-action: pan-x pan-y; transform: none; transform-box: view-box; transform-origin: 0px 0px; transform-style: flat; transition: all 0s ease 0s; translate: none; unicode-bidi: normal; user-select: text; vector-effect: none; vertical-align: -0.00978849px; visibility: visible; border-block-end: 0px none rgb(0, 0, 0); border-block-start: 0px none rgb(0, 0, 0); border-inline-end: 0px none rgb(0, 0, 0); -webkit-border-image: none; border-inline-start: 0px none rgb(0, 0, 0); -webkit-box-align: stretch; -webkit-box-decoration-break: slice; -webkit-box-direction: normal; -webkit-box-flex: 0; -webkit-box-ordinal-group: 1; -webkit-box-orient: horizontal; -webkit-box-pack: start; -webkit-font-smoothing: auto; -webkit-highlight: none; -webkit-line-break: after-white-space; -webkit-locale: &amp;quot;en-US&amp;quot;; block-size: auto; margin-block: 0px; margin-inline: 0px; -webkit-mask-box-image-source: none; -webkit-mask-box-image-slice: 0 fill; -webkit-mask-box-image-width: auto; -webkit-mask-box-image-outset: 0; -webkit-mask-box-image-repeat: stretch; -webkit-mask: none 0% 0% / auto repeat border-box border-box; -webkit-mask-composite: source-over; max-block-size: none; max-inline-size: none; min-block-size: 0px; min-inline-size: 0px; padding-block: 0.00978849px 0px; padding-inline: 0px; -webkit-print-color-adjust: economy; -webkit-rtl-ordering: logical; -webkit-ruby-position: before; -webkit-tap-highlight-color: rgba(0, 0, 0, 0); -webkit-text-combine: none; -webkit-text-fill-color: rgb(0, 0, 0); -webkit-text-orientation: vertical-right; -webkit-text-security: none; -webkit-text-stroke-color: rgb(0, 0, 0); -webkit-user-drag: none; -webkit-user-modify: read-write; -webkit-writing-mode: horizontal-tb; width: auto; will-change: auto; word-break: normal; writing-mode: horizontal-tb; x: 0px; y: 0px; z-index: auto; zoom: 1;&quot; lang=&quot;EN-US&quot; class=&quot;TextRun SCXP247995841 BCX0&quot; data-contrast=&quot;none&quot; data-usefontface=&quot;false&quot;&gt;&lt;span style=&quot;vertical-align: 0.00978849px; line-height: 0px; position: relative; font-size: 20px;&quot; class=&quot;SpellingError SCXP247995841 BCX0&quot;&gt;QR&lt;/span&gt;&lt;/span&gt;" style="rounded=1;whiteSpace=wrap;html=1;sketch=1;hachureGap=4;jiggle=2;curveFitting=1;fontFamily=Architects Daughter;fontSource=https%3A%2F%2Ffonts.googleapis.com%2Fcss%3Ffamily%3DArchitects%2BDaughter;fontSize=20;fontColor=#000000;labelBackgroundColor=none;" parent="_bcPP0k4VmUGyIp4uJ1w-1" vertex="1">
          <mxGeometry x="80" y="-610" width="405" height="60" as="geometry" />
        </mxCell>
        <mxCell id="_bcPP0k4VmUGyIp4uJ1w-20" value="VSTS para equipos agiles" style="rounded=1;whiteSpace=wrap;html=1;sketch=1;hachureGap=4;jiggle=2;curveFitting=1;fontFamily=Architects Daughter;fontSource=https%3A%2F%2Ffonts.googleapis.com%2Fcss%3Ffamily%3DArchitects%2BDaughter;fontSize=20;fontColor=#000000;labelBackgroundColor=none;" parent="_bcPP0k4VmUGyIp4uJ1w-1" vertex="1">
          <mxGeometry x="80" y="-220" width="405" height="60" as="geometry" />
        </mxCell>
        <mxCell id="_bcPP0k4VmUGyIp4uJ1w-21" value="FFLAGS" style="rounded=1;whiteSpace=wrap;html=1;sketch=1;hachureGap=4;jiggle=2;curveFitting=1;fontFamily=Architects Daughter;fontSource=https%3A%2F%2Ffonts.googleapis.com%2Fcss%3Ffamily%3DArchitects%2BDaughter;fontSize=20;fontColor=#000000;labelBackgroundColor=none;" parent="_bcPP0k4VmUGyIp4uJ1w-1" vertex="1">
          <mxGeometry x="80" y="-144" width="405" height="60" as="geometry" />
        </mxCell>
        <mxCell id="_bcPP0k4VmUGyIp4uJ1w-22" value="Sistema de MediciÃ³n del equipo" style="rounded=1;whiteSpace=wrap;html=1;sketch=1;hachureGap=4;jiggle=2;curveFitting=1;fontFamily=Architects Daughter;fontSource=https%3A%2F%2Ffonts.googleapis.com%2Fcss%3Ffamily%3DArchitects%2BDaughter;fontSize=20;" parent="_bcPP0k4VmUGyIp4uJ1w-1" vertex="1">
          <mxGeometry x="590" y="-980" width="250" height="90" as="geometry" />
        </mxCell>
        <mxCell id="_bcPP0k4VmUGyIp4uJ1w-23" value="2023" style="whiteSpace=wrap;html=1;fontSize=20;fontFamily=Architects Daughter;fontColor=#000000;rounded=1;sketch=1;hachureGap=4;jiggle=2;curveFitting=1;fontSource=https%3A%2F%2Ffonts.googleapis.com%2Fcss%3Ffamily%3DArchitects%2BDaughter;labelBackgroundColor=none;" parent="_bcPP0k4VmUGyIp4uJ1w-1" vertex="1">
          <mxGeometry x="21" y="-1080" width="549" height="50" as="geometry" />
        </mxCell>
        <UserObject label="VSTS" link="https://learn.microsoft.com/en-us/azure/devops/boards/work-items/guidance/agile-process-workflow?view=azure-devops" id="BzRKbqC-d9Z4UfPbNkjI-1">
          <mxCell style="rounded=1;whiteSpace=wrap;html=1;sketch=1;hachureGap=4;jiggle=2;curveFitting=1;fontFamily=Architects Daughter;fontSource=https%3A%2F%2Ffonts.googleapis.com%2Fcss%3Ffamily%3DArchitects%2BDaughter;fontSize=20;align=left;verticalAlign=top;spacingLeft=9;" parent="_bcPP0k4VmUGyIp4uJ1w-1" vertex="1">
            <mxGeometry x="590" y="-880" width="260" height="240" as="geometry" />
          </mxCell>
        </UserObject>
        <mxCell id="BzRKbqC-d9Z4UfPbNkjI-8" style="edgeStyle=orthogonalEdgeStyle;rounded=0;sketch=1;hachureGap=4;jiggle=2;curveFitting=1;orthogonalLoop=1;jettySize=auto;html=1;entryX=0;entryY=0.5;entryDx=0;entryDy=0;fontFamily=Architects Daughter;fontSource=https%3A%2F%2Ffonts.googleapis.com%2Fcss%3Ffamily%3DArchitects%2BDaughter;fontSize=16;" parent="_bcPP0k4VmUGyIp4uJ1w-1" source="BzRKbqC-d9Z4UfPbNkjI-2" target="BzRKbqC-d9Z4UfPbNkjI-5" edge="1">
          <mxGeometry relative="1" as="geometry" />
        </mxCell>
        <mxCell id="BzRKbqC-d9Z4UfPbNkjI-2" value="Epic" style="rounded=1;whiteSpace=wrap;html=1;sketch=1;hachureGap=4;jiggle=2;curveFitting=1;fontFamily=Architects Daughter;fontSource=https%3A%2F%2Ffonts.googleapis.com%2Fcss%3Ffamily%3DArchitects%2BDaughter;fontSize=20;align=left;verticalAlign=top;" parent="_bcPP0k4VmUGyIp4uJ1w-1" vertex="1">
          <mxGeometry x="610" y="-830" width="50" height="40" as="geometry" />
        </mxCell>
        <mxCell id="BzRKbqC-d9Z4UfPbNkjI-9" style="edgeStyle=orthogonalEdgeStyle;rounded=0;sketch=1;hachureGap=4;jiggle=2;curveFitting=1;orthogonalLoop=1;jettySize=auto;html=1;entryX=0;entryY=0.5;entryDx=0;entryDy=0;fontFamily=Architects Daughter;fontSource=https%3A%2F%2Ffonts.googleapis.com%2Fcss%3Ffamily%3DArchitects%2BDaughter;fontSize=16;" parent="_bcPP0k4VmUGyIp4uJ1w-1" source="BzRKbqC-d9Z4UfPbNkjI-5" target="BzRKbqC-d9Z4UfPbNkjI-6" edge="1">
          <mxGeometry relative="1" as="geometry" />
        </mxCell>
        <mxCell id="BzRKbqC-d9Z4UfPbNkjI-5" value="Feature" style="rounded=1;whiteSpace=wrap;html=1;sketch=1;hachureGap=4;jiggle=2;curveFitting=1;fontFamily=Architects Daughter;fontSource=https%3A%2F%2Ffonts.googleapis.com%2Fcss%3Ffamily%3DArchitects%2BDaughter;fontSize=20;align=left;verticalAlign=top;" parent="_bcPP0k4VmUGyIp4uJ1w-1" vertex="1">
          <mxGeometry x="660" y="-780" width="85" height="38.56" as="geometry" />
        </mxCell>
        <mxCell id="BzRKbqC-d9Z4UfPbNkjI-10" style="edgeStyle=orthogonalEdgeStyle;rounded=0;sketch=1;hachureGap=4;jiggle=2;curveFitting=1;orthogonalLoop=1;jettySize=auto;html=1;entryX=0;entryY=0.5;entryDx=0;entryDy=0;fontFamily=Architects Daughter;fontSource=https%3A%2F%2Ffonts.googleapis.com%2Fcss%3Ffamily%3DArchitects%2BDaughter;fontSize=16;" parent="_bcPP0k4VmUGyIp4uJ1w-1" source="BzRKbqC-d9Z4UfPbNkjI-6" target="BzRKbqC-d9Z4UfPbNkjI-7" edge="1">
          <mxGeometry relative="1" as="geometry" />
        </mxCell>
        <mxCell id="BzRKbqC-d9Z4UfPbNkjI-6" value="HU" style="rounded=1;whiteSpace=wrap;html=1;sketch=1;hachureGap=4;jiggle=2;curveFitting=1;fontFamily=Architects Daughter;fontSource=https%3A%2F%2Ffonts.googleapis.com%2Fcss%3Ffamily%3DArchitects%2BDaughter;fontSize=20;align=left;verticalAlign=top;" parent="_bcPP0k4VmUGyIp4uJ1w-1" vertex="1">
          <mxGeometry x="730" y="-730" width="40" height="30" as="geometry" />
        </mxCell>
        <mxCell id="BzRKbqC-d9Z4UfPbNkjI-7" value="Task" style="rounded=1;whiteSpace=wrap;html=1;sketch=1;hachureGap=4;jiggle=2;curveFitting=1;fontFamily=Architects Daughter;fontSource=https%3A%2F%2Ffonts.googleapis.com%2Fcss%3Ffamily%3DArchitects%2BDaughter;fontSize=20;align=left;verticalAlign=top;" parent="_bcPP0k4VmUGyIp4uJ1w-1" vertex="1">
          <mxGeometry x="770" y="-690" width="60" height="40" as="geometry" />
        </mxCell>
        <mxCell id="Z2laQgp5YLbhHWAr0X5D-0" value="" style="shape=image;verticalLabelPosition=bottom;labelBackgroundColor=default;verticalAlign=top;aspect=fixed;imageAspect=0;image=data:image/png,iVBORw0KGgoAAAANSUhEUgAAATcAAADsCAYAAAARrOFqAAABWGlDQ1BJQ0MgUHJvZmlsZQAAKJF1kD9IQlEUxj/TsD9Cf5eg4A2NFqIN1WZCERQ8zKJa4vm0Z+Cf2/VFBEFbW9DS2BZNjWHh1NDg0BYIQXvtgQUlr+9qpRYdOPf++PjOx+EAbR2GEGkPgEzWltG5GW11bV3zPsGFPnTCjSnDzIuwri/Qgu+/tSpluln3YyqrPHtwXroIFQYWi4e3ev/rX39LdSWSeZP/BztgCmkDLj9Z37WF4n3yoORS5GPFVp3PFMfrfF3zxKIR8h2510wZCfIj2R9v0q0mzqR3zK8d1Pa+ZHZ5SeWwhxFDDoJvEiZS0Egr//gnav5Izb8HiS1YnLA5E6YikGaGhnlkmTQOPzmIADuk7vz7fg0tNw1MlgD3SUOLPwNXD8BQd0MbvQR6NoDCkTCk8XNVV8WT3wwF6+yTQPub47yMAN4iUJWO837qOFXe0M28m+1PfgRkqTVoh4AAAABWZVhJZk1NACoAAAAIAAGHaQAEAAAAAQAAABoAAAAAAAOShgAHAAAAEgAAAESgAgAEAAAAAQAAATegAwAEAAAAAQAAAOwAAAAAQVNDSUkAAABTY3JlZW5zaG90M+giaAAAAdZpVFh0WE1MOmNvbS5hZG9iZS54bXAAAAAAADx4OnhtcG1ldGEgeG1sbnM6eD0iYWRvYmU6bnM6bWV0YS8iIHg6eG1wdGs9IlhNUCBDb3JlIDYuMC4wIj4KICAgPHJkZjpSREYgeG1sbnM6cmRmPSJodHRwOi8vd3d3LnczLm9yZy8xOTk5LzAyLzIyLXJkZi1zeW50YXgtbnMjIj4KICAgICAgPHJkZjpEZXNjcmlwdGlvbiByZGY6YWJvdXQ9IiIKICAgICAgICAgICAgeG1sbnM6ZXhpZj0iaHR0cDovL25zLmFkb2JlLmNvbS9leGlmLzEuMC8iPgogICAgICAgICA8ZXhpZjpQaXhlbFlEaW1lbnNpb24+MjM2PC9leGlmOlBpeGVsWURpbWVuc2lvbj4KICAgICAgICAgPGV4aWY6UGl4ZWxYRGltZW5zaW9uPjMxMTwvZXhpZjpQaXhlbFhEaW1lbnNpb24+CiAgICAgICAgIDxleGlmOlVzZXJDb21tZW50PlNjcmVlbnNob3Q8L2V4aWY6VXNlckNvbW1lbnQ+CiAgICAgIDwvcmRmOkRlc2NyaXB0aW9uPgogICA8L3JkZjpSREY+CjwveDp4bXBtZXRhPgoxW+52AAA3DElEQVR4Ae2dB3yTxRvHf0nadLd0L7r3omWPUjbIBkFEUFQEQQX94wTEDeJAUZy4QEBAQQUU2Xur7NXSAt3QvXeS9v+8KQ0FCx20WX3u87nmzZt77577XvLr7RNVkQM7JsAEmICeERDrWX44O0yACTABJQEWN/4iMAEmoJcEWNz0slg5U0yACbC48XeACTABvSTA4qaXxcqZYgJMgMWNvwNMgAnoJQEWN70sVs4UE2ACLG78HWACTEAvCbC46WWxcqaYABNgcePvABNgAnpJQAPitgMTxWZo6x+KIN9wjHrlB0TnyhoItwxZicnILFFQ+CqUJR7C/Ed6wbvfC9iTmHOHOLbgMduBWH0pFX99+hre+m4fssrvEFR1Ows7vngVLy/YiGulqpuNuCjG8Y3vYdbMbxBTWPOYAlf+/gIzx7+L47k19/iVCTCBliKgAXEDJEbhmL/jPE7s/gz+Gcew+1Q8ZA1a4RqH76c+j69PFxCPcsTF7EW8rC/Wrl6Mfh42d2dk4ophsxbgrSf7wM7o7kH5UybABHSfgIEms2Dq4YEwKwkupRRCXklylbAVS78/gGwyyiPyIUwYGA5Lw3NYt2A/cuyLkZQUi6OXz0Px9TuQXQ2Hyea9OBsjwfpt++EzLhJ2JQfxySc7kEHPO7cfggeH9oKTeU0OixF76CAuyzwQFRUEi9x9+GTx9uqwEYPwwNC+cLGoCXvjtfAS1i95D2n5BQge/RImdbVFxrmdWL95D1JIX6WdHsXbY4MocCli923Ehr1nkVcBRE5+DU6qqJLx10ercMxzBB53U90Eck/h2yW/I75cDkvXQAwb9xjaOdLnOf/g80UbkGlpCTe3QLjYe6NH33BYS2s9y5dMgAnUS0AjNbcaq4qvXsWpXDlc3a1gIP4HS55+G0l2UYiKsMOZVd9gzYk0VFZewm9ff4MLFb4kSh3hZW0Hj4ju6BkcCJ9Qb7g6+SDUzw0m0rNYNO4pnLOg5zu6I2X7GqzaE4NSoQWrdCW4enwf9h69jGL5GXw8/hmcVYb1wLWdv+Cn3RehbO3WBEc+ju49BbmLH6K80rFy3sc4nAWY2nugfVdKI8oMx+Z+gN0Z5bh86Gd8veEE7AO60v0o+FhXRyJCAY4s+wB/5Lihp7+tKmbgKn5+801sL4tAVI+OMLt+ED8u/wtJJbFYNms29hpEobOfC6I3foGV+y8iv6Gt9lop8CUTaO0ENFJzU5SfwIvd2mIeHDHk5dcxMtILhvFbsO9SO8zbPBR9DAbAPOUx/HyZ+tG6AObWweg3ejSGelzE2U/2oKL7QNzXwQTnsgLhGW+IjmHeMEtbjt8Oh+CNHUMx1FAGx+K5WH0tGeV1CUPSafx+OAhzt1JYqRxOpfMobCLKKoJhalLzlbBA+/6RGDvmfngaD0bi0a44lbAQkZbUNF78FnacjkdxQTBScrJRsC8aRn79MXz8YDhIRBQB9bnR37it3+Hfqqn4Zt4DCHGRUp/bjbgzrmL/PzYYtnEwhjqaINkBWL7tb1yPVmB7Vg/M/XYoOhlmwzjzIjYn19jDr0yACTSGgEbETWLUER8fO4LJnrVMpW3lqkQSiIW6pEgMiYT8jXqlWGwIQ0NJrcB1XArP4+bzYoqoOq56wkJE4W48d1tQAyMjGAqRiK4iJVkMl8JofLV8FwKmf4Mvhprgw57T6QlKl9IWUTiRoGs1riofVYpKJKSVQyYTRjBqtysFW4U80m16qDp9EVlSzcBAyaD6fu0oa6LmVybABOonoBFxq9Msny7o6bkKG5buhcItDn+e9EXft+1vC2oGK2s5Tp4+hCN2HXBLF5lHBEZ1fBe/fbYXRgEp2HdEirDHfWBqFHNbHPTWIxwjhbBL9sIkKBUHjogR/LAfzFS1NuGRAsQcP4C9O63gmr8e0aYz8EiYAtt2ViI/8QIO/5mIA4mAl7EdQnt5Y/vq7dj6WxXcaLTCLZyqmyIr+A1/GVM7xePDz1dg+sSRsKuxxMEbkRFp2PTZPrj3FuHKkWOochwCr45O6G/wDuZ80Bcvt0+jtI4i1T+s5il+ZQJMoBEEJG+Ra0T4ZggqR0m+MQIHdEPbW8TEDR0jnXFuxzZq/pUj4qGJGBHmASOxDKVFlgiMbAcHI2vYWueS6BxHgjQAUX5tYGDmgoBQD1gYOCNqZDAubtmMk/H58Bo4GqOjQmEhoecLTBHYtyPsxZUwd/aGn1c79B8VjJitm3Hiah7c+43E/b3awVIl9VWQl0thayJDdNw5nKda2+hXX0NPd0s4GJfhyol/cLrEB8P7+COwcw+0C/KGQ1k6jh75G+cvXYJp0H3ws5JDatkWkWPvh0/aAfwRZ47OnVxhauiIgHadENUnABkH/sKx6HiI3CIxftJguEnt0KmDC04e3IaEjHRUim1gbeOLyF5BsKyn4toMBcNRMAG9IiDibca1szxL0qKxZN4rKOg5G3Mm94SVdprJVjEBrSWgqqtorYWtyrAM/D57Gt7bkwp5hQFc2o/A66Pa39r8blU8OLNMoOkEuObWdHYt8GQVKhUKKCqrZzSLaKBDGFjhQYUWQM1R6j0BFje9L2LOIBNonQRuTLZonZnnXDMBJqC/BFjc9LdsOWdMoFUTYHFr1cXPmWcC+ktAfaOlBz4D9n2s+yT7vAj0ek7388E5YAJ6TkB94laWTzthJOk+TiEf7JgAE9B6Atws1foiYgOZABNoCgEWt6ZQ42eYABPQegIsblpfRGwgE2ACTSHA4tYUavwME2ACWk+AxU3ri4gNZAJMoCkEWNyaQo2fYQJMQOsJqG8qSANQHIkDUm+Es6NzCLrRgVYmd5Df41cBT2/c3ACyAfFzECbABFoPAa0St8930Kbd7YBQOnqvhHynGwet1FUcaTTdTDgsih0TYAJMoC4CWiVuxnTMwJAI4MFa+4cv/hMw8wK2UE3Nxx2YFQy4U7grdH6fFR2Y7Ea7+W49CaxKoWNZ6PNN9Dw7JsAEmMAdGn2aAVNYAsz8hc4lWAYsIDErIjNO0OsKOrV9SWc615QE7JdMgI4Gpa3IqQkrB+Lp3hfZwOP0+ZIAzdjNqTIBJqB9BLSq5mZhSkI1/taam6C+U0Oof80S6EH+Yh7oLNGbIC+mUzOWmq8RdDyeA58zcBMMXzGBVk5Aq2pudZWFsCdtHp2MJ6fzR/MqAWND0KF4N51w4p9w8DKdoseOCTABJqAioFU1N+EA5e3RQCYNJlhSbWzUjRrakcuAsPP2vyRgU2gUQVpr321/ZzpF7zzw4xl6hj6b4abKG18wASbQiglolbhNjqI+tBuFYSgI2A0RCyKhsyThm+wNdKfBBqHm9ngvGkwwpuYqvZ9On/2bS31ytat0rbhQOetMgAkAWiVuA8P+WySCvnlRDe4J6m+r7foE3XwX3BYQPDsmwASYQA0BrRK3GqNqv/4wA3QCVO07fM0EmAATqJ+A1oubVOstrB8yh2ACTED9BLiXSv3MOUUmwATUQIDFTQ2QOQkmwATUT4DFTf3MOUUmwATUQIDFTQ2QOQkmwATUT4DFTf3MOUUmwATUQIDFTQ2QOQkmwATUT0B9Ey3cOgGRT9ebw9zcXBQWFsLd3b3esBoJIOSDHRNgAlpPQFRFTpusPHjwIE6dOoXnnntOm8xiW5gAE9AxAlrXLC0oKEBaWpqOYWRzmQAT0DYCWidu2gaI7WECTEA3CbC46Wa5sdVMgAnUQ4DFrR5A/DETYAK6SYDFTTfLja1mAkygHgIsbvUA4o+ZABPQTQIsbrpZbmw1E2AC9RBgcasHEH/MBJiAbhJgcdPNcmOrmQATqIcAi1s9gPhjJsAEdJMAi5tulhtbzQSYQD0EWNzqAcQfMwEmoJsEWNx0s9zYaibABOohoL4tj+oxRN0f//wIUKVQd6rak174BDrrdaT22MOWMIHmJsA1t+YmyvExASagFQRY3LSiGNgIJsAEmpsAi1tzE+X4mAAT0AoCLG5aUQxsBBNgAs1NgMWtuYlyfEyACWgFARY3rSgGNoIJMIHmJsDi1txEOT4mwAS0gkCrnefWEPr2PQAXf0CAVFUOZB4FkhMa8iRgRicT2roAGSeAMlnDnuFQTIAJNB8Bva65Xb9+HSUlJU2mZRUKmBQBKX+TqB0HcnMaHpWxI+AQDBjxv4+GQ+OQTKAZCei1uG3fvh3dunXDl19+iYqKiiZhK0ul2lcM1drigKKC6ij8ZwKjfwBGTal+b90F6PcZMJbuDbqfBM0eaDcD8OkL9HwMMDUDui4FvOi+4DwfBsKoVigh+l2/AvrMAjoMAIKmU5wUx5hp1eH4LxNgAk0noNfiJpfLcfXqVeUBz506dcLKlSuRnp4O4X5DnftkYAQJ19AFJFZegHVPoA0dq7r/DSCJmqy+TlSjo6bnodeBbbOBklGAPdXwzn4JXNlL91fQvWJq2poCYlF1qmIpCduNGp0hXecfBq5SGPNcCv8mEE/x+jk31EIOxwSYQF0EtLLRFBcXhz///LMuext178yZM1AoFKisrMS5c+cwbdo0ZU1u6tSpkMtGw0hsXm98ScuBM8eoz62qOqh7JxK4zkC4N6Agkcsl0TILBAIjSZysSPgMqZZnD5TWG3N1AAX1x+XE07MkmkK8YZ5A5XUgj0SPHRNgAk0noHXi5uvri4CAAPz9N3V03aMTam2CuNU4ocaWmJiIf/75B2HywTCS1i9uNc/WvCqodVvwL3DqDxoooEEGWFAtazDVzqj2dioJGLCoJuStr+XUdyel5inIG5O/HbwQbyHFcXoTCWNDlfHWJPgdE2ACtQjc/hur9ZFmLgVhW7BgQbMk/v3332P//v3KZqiDgwPGjh2LUaNGQWii7njWBlWVjU8m+yzgNhboPAOQkwhd/I5ErhDwHgbYJFMN7wbRChIzQ1faeaM/cHJXdRO1xyQKk0Ei15YEkuKp7XIuVMfb6RmqEZLQXfycam+1A/A1E2ACjSKgdeLWKOsbENjExEQpas8++yz8/PxgYWEBsZi6Gm/0f90tiqR1FIxqZzVNUiFsWSLVrqipKjWqvl8qB4oPUvOUxEpMYWXbSZyy6DWbwn1DfWvU7JSRWOVuBg5S3xqoIqmgJq6CxE9B4nr6bRJJ6muTCf10K6rjFdJp+hiv8HTrdrm5ucjOpgJgp5cEDAwM4OnpWW/e9FrchJHS48ePw8PDo14QdQWoqKvqRIJURr+bstoPFNNIKvnbXSnV0lSOankFdTQ3S6nfrsb9J96aD/i1UQSErojycvpPw04vCQh96A1xei1uoaGhDWHAYZgAE9BDAno9FUQPy4uzxASYQAMJsLg1EBQHYwJMQLcIsLjpVnmxtUyACTSQAItbA0FxMCbABHSLAIubbpUXW8sEmEADCbC43QVUXtl1yBR1zN+4yzP8ERNgAtpBQK+ngtwr4kMJq9DBZQRcLIPuNSp+vlUQKMDJDetwUpg/bGyP9pGRCPey+89Su/pQFMXsws//5CIw1A/izEwYBnVDZ3eL+h5r5OdZOL7hBAx6D0KEjajWs+k4uvY4zIcOQxitldZl12rFrQctn6q98qCuQvzj/Tj4jSxEeHBdn+r2vTZNm9es25luSevzzuHHL1fgun0/hNPyOiiKcS01E16OdrAxbUzCF7F+0VJc7v4cutFqGhFNSDYwbomfKYnYmk0wCh14m7hdx/4ffoNzNxa3xpSaVoV1716/OeaOgFM7wIP2a2PHBO5MIB9H1i9HrNN4PP9QV9jTxgioLEcJLZKQNnp3lwxcuWqNnm/3QqggkuyaTID73JqMjh9kAjcI5FzGkX9t0Hmwf7WwCbfFRjA1MYKBpAqVl5dhTLtwhIeHY+yLX+BsOi0uxhG82v4hzJ//DN1vh4EzP8PF64cxv+dsbMo8hoUzpuDn4yex9uW5+HI/7ZhapcCVbQswmOK4b+YMzBryFL4+VYiCzD/wzqPv4W/lUtrzWDLmaXx7Bbh+6RfMHTIeo8fOxFfHLmPP+/2V6Yf3H4tFf8VCsEBwVVe/xxiKM+qBGdhwmhY513JVJanY8ulM9KbPw9s/g63ltJBahxyLmw4VFpuqxQTsbeBoIPmvgbJjmDdxFQasOkP7Am7DVPcsbN55FHm0mYKiKglpPjNwZtdKDDVMx4FEZ8w59AFGO/TCG0t/wEOdbFTxKUq24NtvUzBrwxmsm94XpdIi3F1qKlDWxh1Pv/s+nunmi34zV2Pt2pX4cFp3FB39G3G0kw1toI912+zw9fGD+GScN87u2YNE2tCh2slw5dQWHIp1w+zv12Ltqw749nvaklqHXEs05nUo+2wqE2gGAkbmsClPxMW0cvSgroxbXEYmrol6YHi4cNcZgWFOiEkjYZKbQyLxwcDeIbR1cyp8HIyQkFF+5224UtMgC7gPHbwBK7RDZ7vDoA1n7uKksLPzgLMT7VlYkoIjPyzD8sxyWOTlQOJcY2RbjH9mNBxpg1WZjyesc/JQVrMjBC1OL6fBjKTUS9i1qRBCt2FIeE197y7JatFHahO3xIQEnKOdccubeJaBJpjF02aXe3fvRjJtcMlO+wiYmZkhokMHODnRXu+adGYe6N+7Dd5YvhRtZ76Owb5kTFk6rtKuMPYmlrCpikZ8PBDpmoOUxDJIba2oL+7mJqoNMt3WGgapJ3El7X6YlSUgriAfbvSgWGwJE/McOgiJ3sjScLmiHGG3R5h8GIv2m+KdX+fAeP9PWH+0JkA2YuOoPettgsyUdJRXuYKQVjuRCIZWVnD26oSHn5uGCBJfXXNqEzdra2sEhYTcsjOutsOysbGBD+0MHNaORhXYaR0BQ0ND5f58mjfMGB59J+N5g1X49JUpWG9NFpk4otfYSRgb1RHPvd4Bb780BXstRLDx64WH7guFmcGZRpkttu6DwSHbsXDWFPgE26OiWAyhT8nEJBChXj9hCaX7k48lxAV11OdcQtDDdj3em34J5sbWcPOskT9TyP9djCnrU2Fg6YHhj0+Eo0lCtV0iQ7iFRaHdoR+w+H/TYGhKUtH1KfwwjfbC1xEnqiKnI7aq3cwnn3wSgu/ShYdL1Q7/HhLMyspSHgR0D1E07VEaIS3ML6nuCxMbwMTUFEaGEprOUYYC2sxPQTukGhqZkCAZQSKSoSSvjETFAlJxJSpKy6CQGMFYWonS/HIYWJjTfdqXrrgMVVITGBuKoSgroj0BZRAXnsGnc/ah/ecvYyTNM5GVF6OI7oM2cTSkrc4MzClOlFMTswpSU2MYiKiJWVSIEnkVxBJDSCmclKaXVBSVolJcRSfDyenAIilMqNpmKJZT+mUQm5vTGSNkV1kJSungXeUOarRPvrVZo4d/m8byLk8J/9T8/ekUpXqc2mpu9djBHzMB3SdAI6QW1nU03yTGsLQ2vi1/hjAVThNSOjGkJjWT4SQwtaq5L4GRqp0oV57BK6NRhPhDhxBN8Y0VDsUVmo/G5vhP9KDR2pomJtXxjOj0otstMyEBFZwqCeU7EmWr6vvU6CW7SGRNlB/o3B8WN50rMja4NRKoqkzHX5/Px77rlHuxByb97zEEmt8uV62RzJ3zzOJ2Zzb8CRPQGgIisSseenMpHtIai7TfEJ7npv1lxBYyASbQBAIsbk2Axo8wASag/QRY3LS/jNhCJsAEmkCA+9yaAK05H6morMLF3LsvpGnO9LQhLqlYhGBr/uppQ1nosw38DdNw6aaVVKL9r5katkK9yXtaSBA/sWYJkHrT5tRaDwEWt9ZT1pzTBhBwWrSoAaG0PAjNfUt76SUtN7LlzdOAuJ3AuwPnYJ8yb5boOvFZPDuhDxxvn+NYb94rEH98E7bsN8DQp+6Hl2rCYr0PcgAmcEcCtitW3PEznfmAxU1ZVBoYUMhGzME8DH9/Nb56dTQSdv6CPTEptDSlsa4SRTmJiL2YhKJGdVmdwXsDH8Yn0Y1PsbEWcngmwAQ0R0ADNTfKLC3KtbR1gF/HKAzaeBjnz6ZjdBgtBs4qgsJQBLHUFBYmIhTm5KNMUalcD2fexhamwqoUWqeXk50PWVU5rbMTBEq4KUMhPStqYw1zA1orV1qMcjktYzE3oTV8ChRlZSoF0MDICIZVucjMyIA0PQ1Zbe1hZ6H5tXKUAXZMgAk0MwHNiNuNTMgLC5FdUUUiJIVYtBPP+M5F4Zg+6Nx3KIZ5XMKHC3Yhz1BGy+cq0fOJpZg52gE5Oz/DzAWHUWUnJoG0hYm4A8V2BgsHvAHztVswL6gA//6+BL+d9sTMtx6EJOZXLHr9G1yuNINb167wLcvAnoQzKJ73BHKeeA/fThGeZ8cEmIC+EdCIuFXKr2Hbt4uQUpaKK6Y+mNKlLe1GkAiRsQQ9n5yPVzom4oNJ38Hz2U/x/mgfJB9ejkU/fonTEQ9i+3dn0f/DNZjVRYytnz6D5bF3KZKC0/jkyS9gtmQztkXZ3Qh4AoW7k2H8zSa8FlrHzql3iY4/YgJMQHcIaKDPTdjIQAoreyd4duiD6dMeQZe21sq9qQwNXeHh0YZ2Di1GQbkzvP2FUQYRLFwj4OWQi5KMIuRahqNnCNX06OQN94gIuN5tw6a8BMRcD0QvlbBprmBSUlIgk9Wx15bmTOKUmYBeE9CMuEns0P3+SZj0yGh0D3D5z1YsaNMG9qaxOH6UNnSvqkRW9B7EZbUjMbOFc+Z2rN5Le2PR1qPntm5DtPLIRXu4eaWANs4FioqQeuEChEs4RSDK/yBW/aT5nXSXL1+OCRMmYN++fTq1Yadef/s5c3pNQCPiVi9RSTBmLZ6BvPd7Q0Sb/vV++TSGvPk8Qsza441Xh2DtZFeYOHliaV4IgpQ1Nw88M3MYlg0XQeQWijkHSuEtJCINxLz9n0MxyZNqiyIEjXgB+xM7ot/g63irnQFCZu+s15TmCpCTk4PffvsNQ4cOxcSJExEXF0fnpt6t2lk7ZSMsf8wOs1WH5BpgVj9rfOR5j70KtL9+yuPOqJrugoT722AY7bb6DG2X/bG3AbjBXps/X+sigXv8dTQly4OwqnRQHQ8Ox/Jrw2/edx2NdXGjb76vueo5Bxn5c2re3Xzt/x6JxXs336uuhmL97SKy4ATkC1QB7npx+fJlGBs3ehLef+IUdocVXGlpKdatW4dt27Ypa3KjJz9DI8DUFJc0vSjamBnAnUzMK1bgGu2+KqemvKetASxpaVdmiQLX6fxMZyvaeFAhgjENzsQX0g6rtBvs0i5SrNqajrnpyn1WYWEsxQtGYthbGMDfVIHoEhrskUrgZkGbHdJhcNkFcqRSy9rIQAwnczFMKP4K+qehKJUjke5bUZ+pOdW008gGfZ5ok07lSMcjKI/HE8bancmr/u/QNTvtIND0X5R22N+iVnTr1k0pQoIQ3as7ceLELVEUFxdj165dKBDTDqz+T9Jm+E39eUgwOdIKg+Qy/HG5FGuTZLB0tMBHXSSQlAJxaSV4/2IVXhxgiYgsGU7nlOH9c+XIopPML+ZXItDWGD2KSnCkWAQfOym6kCh6GZticqEM85KqMCzAAhPdaVpOFY1OpxRh8tkKONmb4sMoY1SklCPW3Bh9M3IRSWkMDbZAeEEx3omjLbRvya1+vfmKsrOZfAh5OqEPfck/Sl5HN6wly/XTsbjdpVynTJkCwTeHe/755xEdHU3HuUlo0MQDI0aMwKBBg+DVsSfWbqS+xSY6Eah5bQHsPFyMr9OE+hI1LbuZwr+0BH9XGSCIBCvAmKpuVJvLSS7ES1era2mgffNXni3Fw21NMCvSAJ2ulGLFlTL8dc0APslFmHtVARtLY/Sig6VWHc7D7zJjbB9misFxFThNsZUXybD0XBFOUNoTOxjBK7YCbkZVOJFJ22E3MS+69NgYMnYe+d3kj5MXyP9BXvgX1Zt8HPlL5KPIC/d+JC/0A7uTdyHfh3zNxuJ0ya4FCLC4tQDUO0Xp4OCgbIqOGTMG7ehErTY0cJJUJPwsmi5u1DDEV/+WYBzVsGabluC7q1QDs1Tg+KVy/FpcjhKa6HypXOharURc3g1hu2FgXm45vsyV4WSRKab5mSMxU3lSr8p8qVgCCzpxJIeamTSbGvF02Ikv7WwtiFteuQIFNEcxl87a3Ezndo6jdfCeYhl+L2hoP6IqGZ28WEVWHyTvQP5p8sKpA3vJu5IXxC2J/H7yEeSjyW8gT/Vz5Su9oBt5FjeBRMs54VuvZrcfz3qOwM/JTU32b8wJG00/4trP0yTe/g9jifDvUkudMJAgjJQuXLgQUVFRSmFruKkV2JligCnB1Xvm2zsYojfVkk5Ss1Lo+TmVXIZNKXJYW0pgbaDA1QIJ3Ol1e3I5DmbJkSPo5x1dJc5QR1quRAxbYbFHLVckq8C1EgP4tqGvib0h+pZUYHt+rQDCpbwCK5PE6OpBpyllVKCmYnhbKL17ez/l6EfyY8kLTVShH+5OThBCoek6jLzQ22xDnl3LE9CAuJUjLz0bypVTTcqfDPkZdAjtLT9YWn6VndvINaZNSrzJDw0cOBBBQUEwpePehJHbxrkqrNmdhfWO1kh/1AnnB5vhUkwJNudWUmPTGOsnOWJThBRJ2TJckcvx7t5CmHWwo7AOWN3JBB4kgEXllSiuXXGjwYNF99khleKLf7ANPK8VYlm2HMfSqhDVxQ772xsiv1iODQkyTB7kgPQhpvj9WBH+ocEZhaIKhVRrk92opJ3IViDKWYwDqfLqI+AalzmdDC3U1KjFDj/yQjP8GnkJ+ZqvpfBac12z9FkodeEH19jSp0fYNYGAZpql9AMpTo/B4csptIzKC+0CPWFJI22pZ3chWhiGMndAaJA/nKyMaQS0CLHHjiG5GLB08Uewb00uaeF8djwuxBbBPais5ia1viqQnXwJF+PoBG266xBMB8u6UI2H1qSmxcfgUkIWpG5usEjJh3WPLnDVmV5gOeZtTFP289zMrHBVhgdWpt16izr1u68kYLXcW5tza72jy7IKvLw9Cy/fehcnL+WjC/ka929CISLJ13axGcV4Xign+pm62hhiqLsE0YlFOHhrkrUf0bvrK5SjXeSFxgK1yJV9ab3odSn5juSFJup18oIbQP478qHk95NvDX2SlE2NO42IW6XiOvb/tg6pJZdxMd0CD8yagwk93JB8chu2nS/GlcRy9H3oOTw52gtn1izE9ztz0MbBCq6dDOFOPyTByUqTsPXHD7ArvTumObVVgSxMP4oV7y3FaZkrHCQxiJVdxZuLp8Azezd++GAtroic4Nw2H9vnn8aTl/7FdG/Vo3zRaAIiuNtK4VdWhnmn6Z9Ho5/XzQd6kNmCsG0jL9TexpO3JT+S/AHywn078hPJ03gLxpFPJC8MOAi9Kd3JC1NI2LUsAY2Im0hkBM8eE/HGUBvs+2QOtsckYUwXN/h7uiNr32EUxKfgTEI6iq4nY9ErRzDo4FZM9xUaAoI7pPx7ZNkrSHUeizlzx8PL+jh+Vd4FMi8ewunMQDy3/E10ksTj44cGY93ZSRhfcAqZ1gPw+huPwz7tWxxYIHSLs7s3ApU4GldE/t5i0bWn7yODBV+X+6iOm0IN7jx5GXlhxmQkeR5MIAgt7DQjbhJbBEf4wkRaCGOjCpTRtIKqhJ/wwuxo9P3mf/QvbgMuW1LOC68jOdcbfiphu0GjKhZX/66A/EEvErZbCSmKyiE2d4al8Dy8EORRiMt5NLFVJoYZ1fCsSSPNfX1pBQP3fNxKjt+1FAFhAGHWjciFf9FCO0MDnd03LGg9LxphXCk/SSOHCTSf4CpOnLJEQIQjpJcOYYddCPr5OqAqPxNZBVQI3v0xMmwNli2Pv7VERP54aMnviLr0Ij7bo+z8UX1uRGonTziC2Fi6lfwLPv9tEIaNlMDMWobEfVtwltoH8bTOcw3NpGfHBNRBwIgSEaaECN6XvFB7Y9fyBDQgbuZwCxkFk2PPISzqEfzr2RWj2gVBOnwOXjL6BkMHTsfGFBP4eZvDQOSDV4/9BYvFIxEWFoYHX1uJyzmmcAn0QltHR0x4ehaiv3kZyw6mwNrHA/b0LXIPfAzTH3PAR2PDEDZsJQZt/hTDqRkc0v5h3BeeihnDw/C/RCeMpq+YlDs+Wv4bxikwAQ0RENHi7RsD+hqyQAPJpu+ag54PF2JV+pfKyZQaMEGVpDCJ12P13WZJqYLqzUVLn34lrONNT28a05DQUN3nTFONLpw7p/v5uEMODA0N4e/vf4dPb97WSJ/bzeTVdVWJ3OST2PjTrxBmOSQePIpu7y9EoLqS53SYABNQO4FWIm401dXSCWHdesOpjBj3eQDt7+uINmrHfY8J0mlf6DTqHiPhx5lA6yDQKpul2lS0NNkf6Q1crtExJBAnLsRok/lNskVCzSZHk5br7uVmKTdLhS9mK6m5Nek3qJaHJDQjxcW0emJyfQlKZKUNDltfXPx53QQU1rfNLao7mPJuZWUl5LTcTaplI1OtrhP9DmXE4nYHMHy7dRKIOXiwwRnPzMzE1q1b8eijjzb4GQ6oPgIt1zZQXx44JSagEQIldI7H6dOnNZI2J1o/ARa3+hlxCCbABHSQAIubDhYam6wdBIT5Vs7OztphDFvxHwIsbv9BwjeYQMMIuLi44MUXX2xYYA6ldgIsbmpHzgnqCwFhcQ8ftK29pcnipr1lw5ZpOYG8vDzlCWZabmarNY/FrdUWPWf8XgkUFBRg9+7d9xoNP99CBFjcWggsR8sEmIBmCbC4aZY/p67DBISVCW3b3tziXoezopems7jpZbFyptRBQJgG8sILL6gjKU6jCQRY3JoAjR9hAgIBYW2psEqBnXYSYHHTznJhq3SAQG5uLrZs2aIDlrZOE3nhfOss9zvnuuJHOuP10J0/15ZPxO6A0RsataaoqAhHjhzBAw88oFE7OPG6CbC41c2l9d4VhK3iB+3Pv6S9xsVN+yG1bgu5Wdq6y59zfw8EhNFSd3eqQbLTSgIsblpZLGyULhAQRktnzZqlC6a2ShtZ3FplsXOmm4OAQqFAYWFhc0TFcbQAARa3FoDKUbYOAjk5Odi4cWPryKwO5pLFTQcLjU3WDgLCHLdTp05phzFsxX8I8Gjpf5DwDSagnQSMDePgbjdDO41rhFWlFUFIzl7SiCeaFpTFrWncdPopoTkleCcnJ5iZmUFER+011BXnA7JagY1MARPDWjfucFlRSjP66dtm3ICwd4hC624bGxs36OTz5jJcJJLBUHKtuaLTWDwyib1a0uZmqVowa1ciiYmJePLJJzFhwgRs27YNKSkpyqVEDbFy0QRg4DAgpCPQfxzw1RFA3oCz5Na8Biz4HSivbEgquhHG0dERTz31lG4Y2wqt5JpbKyx0IctCf9G+ffuUftCgQRg7diwiIyOp2VOJu9Xj3qLVRhOOAl/SPN/JHwHt2wCn/gAOp9OcWjrys0dPEj4nIP8isOowYO0ADBp1K+SdqwD7QUCE4633de2dcGapMFpq3YizTnUtj7psL4ubDpWesPPrtGnT7tli4UT2+Ph4ZTzCEqINGzbgwIEDSnGbOfUK+nSn07ob8c2QUFPTSApcjwa2FQOujwG/vgvEkID1ps9qNw92UFfLcbr3QO2b95wjzUSQnZ2NTZs2NUuZaCYH+p1qI77C+g1CF3LXXLu+xsbGQvDCocI1zsjICO3atYOvTxnEkvM1txv02s4SmPYxUJQL+A8ERpUAheQPUfRfkNDVuFM/kQAOARY+ATga19zV3deysjLExMTobgb03HIWNx0q4K5duzaLtcKyIWEgQXCmpqaYPHky5s6dqxxgkJRTzbD2iEF9KR4GbN8BDm4GcrcA64/QunsF8Nw6oDs1W9tR/9yqv6ojKbgOZBTph7DVh4U/1zwBFjfNl4HaLTCgNqebmxvCw8Mxe/Zs+Pj43LShESOnyoeMAEPqVzO4Apw/BsTeiCnnGmBJfW0jEqj/Lav6Zu+XgchLwNjFwOdUe3Oh/jpddsI/hoiICF3Ogl7bzuKm18Vbd+aExd6LFy9WHigsHCzcWGdhS4MBNFraRni0E/AGNTHnfUY1OA/gQdp124K+VVu+ADaTqPmTwPWyo9pcOPXLudFI64NA1nyqzZEQzh7c2JS1K7y9vT0effRR7TKKrVERENHZi1Wqd3zBBEqn6s6WR+Yn6ywvYcAkPZ2Gb1vYCaOlwiCPnR2ptxqcifQivB3ov8Nd3M7vqIsg42YAv27A8CgatZbevFfXVdIF4AJ1G3TtBdjUE7au5xtzr6QiHPEZqxvzyC1hhX/I/v7+t9yr640ejFnVlS2+xwRanoAgoqtXN/1HeicLhfqGIJxNca6BQEdqKR/9iSZNU03az5VqzJL6Y0qhke6de6jftKL+sLoSgsVNV0qK7dQ6AuXl5RAmRDe3y8/Px4cfftikdavBVEsbORTwMAe69Ae6kdjt/gAIo24Ef6rFvU6DPoLL2E/zDwcA3tRdcLj6lurv24Oom4E+13XH4qbrJcj2a5RAY5auNdTQiooKbN26VblX3Jo1a+55W6URs4EjJFZ719LgzjfAWeqI2kij2fe/D1w5Q4M8NwyrpMrimrmA2QLg3d4NtVZ7wxlor2lsGRPQbgLm5ubo1q2bcrWH0McniJIgdg4ODmjTpg2ECdLCfaGJKZFIlPctLS0hnFSfkZFBU2YUNFnaAMIyLiEuYdWI0IeXlpYG4fAZwX300UfKcxqmTp2K8NAmNFVLqC9tOzBzBVBWSLN8qDoziuYfhlAtbv4qIJSm/YR1r+Yc/ScgeYIGe8Kq3+v6XxY3XS9Btl9jBGxtbTFu3DgkJCRgx44dys0IBBEbOHAg2rdvj2vXrinvC0u0hEnSwjK30NBQJCcnK+8Lk4AFURPuBwQE4MqVKxAmaqempqryJAimsEzu/PnzeOKxrnhhOs0TdFB9XP9FPPDCTmDJcsCNrh+hWpzgIicBqwNoqs7DwEsnACe6Z+NNmyAUAFtPU7gbgqcMrKN/WNx0tODYbO0h4OLiolybK9TQhJqbUDsTnIeHB8aPH6+soYnFYtV9YV7hww8/rNysQBDDmvCurq7o378/du4kNarlLCwsEBISAgsLc4q/1gcNuXQBAspI3F6jwDSvsObxA2uoafovTdHpAATRTaGe6Ez9b2Np0vVvVMs7mQwsvvvAbENS12gYFjeN4ufE9YGAsOKjrukgQm1NmAt3uxO2ShL87c7GxgaCF2pqNROtBwwYgF69einnJLo6pcHB/pfbH/vPe0EA5y6jmpgtfSSl+YRUW0uhGhloYwN7qqnZ0msZNUsn+AHjbEjcLGi5XF+aVN2FanCugA/dS6bndN2xuOl6CbL9ekfA09NTOVoq7NIiCKQgdIKTSnManFefWv1mrtT8JM26xVlRE9SRfI0TJmYLXnBO/tXN1Op3uvuXxU13y65lLBdRh47Yt2Xibs5YxbTcQU/diBEj9DRn6s0Wi5t6eWt/asYLabtc8uyYgI4TEOu4/Ww+E2ACTKBOAixudWLhm0yACeg6ARY3XS9Btp8JMIE6CbC41YmFbzIBJqDrBFjcdL0E2X4mwATqJMCjpXVi4ZtMQPsIyBXWyC3W8WUDhLVC3lYtcFnc1IKZE2EC905ApnDGtdw37j2iVhIDN0tbSUFzNplAayPA4tbaSpzzywRaCQG1NUvLaXuX4uJiVPKRDa3kq9Xy2ZTQThtmtGWQsHCdHRO4nYDaxE3YjvnYkSMQ9rBixwSag4CwVVBkVBTc6DQvdkzgdgJqEzd/2oxP8OyYABNgAuogwH1u6qDMaTABJqB2AixuakfOCTIBJqAOAixu6qDMaTABJqB2AixuakfOCTIBJqAOAixu6qDMaTABJqB2AixuakfOCTIBJqAOAixu6qDMaTABJqB2AixuakfOCTIBJqAOAhoQt1JkJWZB+9cpyFGUnYW8YtnNcqiUoZDuZReW0TKym7f5igkwAe0joLYVCjezfhAvhqzF40XLQefAtpArRerFyygwbws/N2sY0CG1jXeJ+HnOe0gY+DzeGhdSHUd5Og6tX4ck90F4ZFAozJqDnryUTsDd2XjztPEJU2c6DLOzxi0T1poKp7Sz008CEomkQRlrjp9ngxJSb6AsHFzxDc76PYxXH+8O8+bKpUlbDHnqhebNSmkmsHlU88apqdh8xgBDf9NU6qp0hTWngmfXugk018++CRQrkPDvn/j+m18QWwB0m7EMT0ck4IfX38GBNCBg2P8w60ELrHniZ4QsWYh+Dpk4uHITUtz6YExvX1RcWoN5b25EmsgVQ2ZOx/ioQJgqrSjBpYN/4tdN23HBPBoxufOwerohvnvpL1yzNYfffWMQmrYCizfEo8rEFj0eehGzBvvSk9nY9t5cLDuVB8u2wZj0v0m18vQvPnjsexiOfwI9CqNxpU0XjO5fgeWP/QJpbzPs2nUWtp3GYc7UUfCwkSLn7Cq8ueBPlIeGwjffCJ6TpuDBCLta8fElE2ACLU1Ac+KWfx2Hjp2GSdSTmN/NHRbOJsjZvRw7LcfgwxntYWLtDCujf/DPr7thqjwjuARJZ07igrwdRvXah3cm/gK/Tz7EjIqjWHn+ItKDveFlK2x9Ywz38Ej0jToCW48ReGp8R8jLN2D/rn0Ie3cpRrT3gqnsGcxvX4a0+N+xetk6nOz6FNK/nonPc0fgk/kdYWBkCnunCsRRbCKk4vuHpiN1yC7M6Q4c+eQ0zjl6YVi/MmqiLkWGzw/4elpbLFi8BZv6dsIMm3jMf+wj2MxdhxHSzXjt9fUIHTgRur85dEt/FTl+JtC8BDQnbkZSWBbF4s/dVRgQ+SK8zSTItTFGxqbvsKPPSjzlYw7JnYY7Yk9jx5m/ED14O5RBus3AQ8MHAEpxE8PE0ga2Nm1g6+QOPxcrVOUawM6pPSL7RcDBshLynd8iYvRiKBSGCB40E4+mncX2XVZ4cMV9CHCzvUH4Cr1WYe+bY1Ey4QBOPu5D71NvoS81CsNjT4xBgOdV9PvtCK5cLoTC/CRi3KfjuwcD0BaVGPLTKeTc8hS/YQJMQB0E7iQfLZ+2sTNGzv0FW+YG4rMnOmDc8utw6P0u9mxdjPI1YzHs1bVIyZfC2KwE5eVkTkUFiulCOXZpbAwHpwfxa2qBcn+4sn0fI8ytgX0sSZsw/tVcrCsoRtKpHzHEieI2NIG5aRkyM6lz/xaXBkvXPiiK3Y64DMGIBjiyzaAoDTlFgLywCHllpVA04DEOwgSYQPMS0FzNrbwAl07sw8GLZQgP7I4422IUx+zC2kMJMHTqgUBqpkokfhj1QDm+/v57SH3SsO9CMqw7EgD3HhjRYzWWv/opMjrb0AhdCMb07Qgb85odWc1gbWuA5BN/YoW7DR5tXxuaCUzdC3Fy+Q+IvX4aCYVWQJtgjHrEDu9+uBTWAzyVTeIufQPpIWd0mPY83il6F/Pf+woTJ3SpfwqLR0/0M5qKhQvd0c/xMv5OzERY7eT5mgkwAbUQkLxFTi0pqRIxhLm1KwLau6A08RJiU3Jh4NgDk8Z3hmVWLP6JzYDIwgf97+sFf2dnBAT7IycjDTILB3ToGIWozqFwd/BBRM9AVGZloFAmg8zEAaG+bWFqVDNEbAJrewuI5YUoMvNCtwBXWNp6wD/UC1b2zghsI8P19EKYuHfHfX3awc/bFwERYXApzEBycSlEUlO09QlFW3tbeAT6oXP/YbDPu4wicy8EBVDfnq8v3J1sYGXrjuAuwbA3EsPIzBbuAXTf1hsh4S7IIduMbIxQcKEc3mMGoZvLHaYmVOQDpz9V0dHpC5sgwG+8TmeBjdcfAqIqcvqTHe3KSeKezzD93RN4etlijPKo6cu7zcbCJOBHj9tu6uhbLZkKoqP02OxmJqC5Prdmzoj2RHcZb0TawMbGBu1Gr0Tw1Kno7UZN53t0L74D7LrHOPhxJtCaCGiuz01vKfvincM5IC1qVldCYx3CYEpVJZBfAmqOU1chjaFYUEu8lD7LovVsZjTRz8oIKKCWrgG1gi3oX1cZjYOUUd3cgu5LaKVGVi6Fp2esTABLw2Y1kSNjAlpFgGtuWlUc9RuTSROc318PTF4H7CERE9xPvwIT6f2KGBI9ev/aImBZtvIj7DkMLDxIokZDtmk0k+XZ5cCkX4CvzgElJJTsmIC+EmBx07GSzS4GcqkW9g7124+i1q7QY3qGVnA9PAx4Ppxqc3fJz49rgGvOQATV8C6mAIlU22PHBPSVAIubjpWsmwsw0htYvRXYQk1METU1Jw0Ako5Rbew8NVnvkp8LJGiBrkB3GtR8hITQuWbmzF2e4Y+YgK4S4D43HSs5czNgMM31y7oOnM2iderWQJdQgHZjwnaqweXSqydNTE4g4QOFvUphUiiM4HxI2JLMgfEdqt/zXyagzwS45qYjpSvs8iLs3HQ2mmperwBPUi1suH11s3TUi0BvqslZkah50iDBy1ST+/JrQPoB8C2F87hRym89DpxYRfefBx7fDaTrSN7ZTCbQFAI8z60p1JrzGZ7n1pw0OS4moCLANTcVCr5gAkxAnwiwuOlTaXJemAATUBFgcVOh4AsmwAT0iQCLmz6VJueFCTABFQEWNxUKvmACTECfCLC46VNpcl6YABNQEWBxU6HgCybABPSJAIubPpUm54UJMAEVARY3FQq+YAJMQJ8I8AoFfSpNzgsTYAIqAlxzU6HgCybABPSJAIubPpUm54UJMAEVARY3FQq+YAJMQJ8IsLjpU2lyXpgAE1ARYHFToeALJsAE9IkAi5s+lSbnhQkwARUBFjcVCr5gAkxAnwiwuOlTaXJemAATUBFgcVOh4AsmwAT0iQCLmz6VJueFCTABFQEWNxUKvmACTECfCLC46VNpcl6YABNQEWBxU6HgCybABPSJAIubPpUm54UJMAEVARY3FQq+YAJMQJ8I/B/pFCpGCbBXEgAAAABJRU5ErkJggg==;" vertex="1" parent="_bcPP0k4VmUGyIp4uJ1w-1">
          <mxGeometry x="880" y="-980" width="329.45" height="250" as="geometry" />
        </mxCell>
      </root>
    </mxGraphModel>
  </diagram>
</mxfile>
